<svg xmlns="http://www.w3.org/2000/svg" xmlns:xlink="http://www.w3.org/1999/xlink" width="336" zoomAndPan="magnify" viewBox="0 0 252 147.750002" height="197" preserveAspectRatio="xMidYMid meet" version="1.0"><defs><g/><clipPath id="43f36ffa1b"><path d="M 46 71 L 50 71 L 50 78 L 46 78 Z M 46 71 " clip-rule="nonzero"/></clipPath><clipPath id="814400c4c6"><path d="M 57.128906 29.789062 L 207.007812 69.25 L 196.523438 109.074219 L 46.644531 69.609375 Z M 57.128906 29.789062 " clip-rule="nonzero"/></clipPath><clipPath id="abd4218118"><path d="M 47 60 L 207 60 L 207 73 L 47 73 Z M 47 60 " clip-rule="nonzero"/></clipPath><clipPath id="bca5631203"><path d="M 57.128906 29.789062 L 207.007812 69.25 L 196.523438 109.074219 L 46.644531 69.609375 Z M 57.128906 29.789062 " clip-rule="nonzero"/></clipPath><clipPath id="c0f9ebce0b"><path d="M 57.128906 29.789062 L 207.007812 69.25 L 196.523438 109.074219 L 46.644531 69.609375 Z M 57.128906 29.789062 " clip-rule="nonzero"/></clipPath><clipPath id="dcd8ff8976"><path d="M 101.457031 61.65625 L 158.753906 61.65625 L 158.753906 135.238281 L 101.457031 135.238281 Z M 101.457031 61.65625 " clip-rule="nonzero"/></clipPath><clipPath id="78495ceaa4"><path d="M 99.417969 43.140625 L 160.792969 43.140625 L 160.792969 131 L 99.417969 131 Z M 99.417969 43.140625 " clip-rule="nonzero"/></clipPath><clipPath id="ee357b0604"><path d="M 149 87 L 153 87 L 153 94 L 149 94 Z M 149 87 " clip-rule="nonzero"/></clipPath><clipPath id="86fcdedfa3"><path d="M 158.089844 54 L 209.320312 68.191406 L 200.527344 99.941406 L 149.292969 85.75 Z M 158.089844 54 " clip-rule="nonzero"/></clipPath><clipPath id="72765b0d58"><path d="M 149 60 L 210 60 L 210 76 L 149 76 Z M 149 60 " clip-rule="nonzero"/></clipPath><clipPath id="4cc3e55476"><path d="M 158.089844 54 L 209.320312 68.191406 L 200.527344 99.941406 L 149.292969 85.75 Z M 158.089844 54 " clip-rule="nonzero"/></clipPath><clipPath id="9b1e0912d6"><path d="M 51.738281 24.425781 L 221.308594 71.390625 L 208.917969 116.128906 L 39.347656 69.160156 Z M 51.738281 24.425781 " clip-rule="nonzero"/></clipPath><clipPath id="e12b4df3b7"><path d="M 201 16 L 222 16 L 222 109 L 201 109 Z M 201 16 " clip-rule="nonzero"/></clipPath><clipPath id="481c538b38"><path d="M 204.230469 16.441406 L 223.632812 18.039062 L 216.136719 109.074219 L 196.734375 107.476562 Z M 204.230469 16.441406 " clip-rule="nonzero"/></clipPath><clipPath id="de560052ba"><path d="M 204.230469 16.441406 L 223.632812 18.039062 L 216.136719 109.074219 L 196.734375 107.476562 Z M 204.230469 16.441406 " clip-rule="nonzero"/></clipPath><clipPath id="461841313f"><path d="M 221 30 L 240 30 L 240 105 L 221 105 Z M 221 30 " clip-rule="nonzero"/></clipPath><clipPath id="ea09e23e27"><path d="M 222.363281 29.539062 L 241.761719 31.136719 L 235.679688 105.011719 L 216.277344 103.414062 Z M 222.363281 29.539062 " clip-rule="nonzero"/></clipPath><clipPath id="e1fe6dfeda"><path d="M 222.363281 29.539062 L 241.761719 31.136719 L 235.679688 105.011719 L 216.277344 103.414062 Z M 222.363281 29.539062 " clip-rule="nonzero"/></clipPath><clipPath id="27f95dc8f6"><path d="M 239 78 L 247 78 L 247 100 L 239 100 Z M 239 78 " clip-rule="nonzero"/></clipPath><clipPath id="63da448866"><path d="M 236.953125 98.636719 L 241.5625 42.671875 L 249.023438 43.285156 L 244.414062 99.253906 Z M 236.953125 98.636719 " clip-rule="nonzero"/></clipPath><clipPath id="227b3a7180"><path d="M 244.660156 99.273438 L 249.269531 43.308594 L 241.808594 42.691406 L 237.199219 98.65625 Z M 244.660156 99.273438 " clip-rule="nonzero"/></clipPath><clipPath id="5bef45ee6f"><path d="M 239 43 L 250 43 L 250 78 L 239 78 Z M 239 43 " clip-rule="nonzero"/></clipPath><clipPath id="4e7d60d8e8"><path d="M 236.953125 98.636719 L 241.5625 42.671875 L 249.023438 43.285156 L 244.414062 99.253906 Z M 236.953125 98.636719 " clip-rule="nonzero"/></clipPath><clipPath id="b06595f151"><path d="M 244.660156 99.273438 L 249.269531 43.308594 L 241.808594 42.691406 L 237.199219 98.65625 Z M 244.660156 99.273438 " clip-rule="nonzero"/></clipPath><clipPath id="2e5c427f9b"><path d="M 80 86 L 84 86 L 84 88 L 80 88 Z M 80 86 " clip-rule="nonzero"/></clipPath><clipPath id="9a407375ed"><path d="M 87.257812 48.546875 L 104.210938 51.585938 L 97.738281 87.699219 L 80.789062 84.660156 Z M 87.257812 48.546875 " clip-rule="nonzero"/></clipPath><clipPath id="a1eebeaa15"><path d="M 80 60 L 105 60 L 105 78 L 80 78 Z M 80 60 " clip-rule="nonzero"/></clipPath><clipPath id="cd0b0c8406"><path d="M 87.257812 48.546875 L 104.210938 51.585938 L 97.738281 87.699219 L 80.789062 84.660156 Z M 87.257812 48.546875 " clip-rule="nonzero"/></clipPath><clipPath id="e81e686d61"><path d="M 18.125 35.503906 L 174.367188 63.496094 L 166.972656 104.769531 L 10.730469 76.777344 Z M 18.125 35.503906 " clip-rule="nonzero"/></clipPath><clipPath id="f8a555ea77"><path d="M 100 56 L 111 56 L 111 68 L 100 68 Z M 100 56 " clip-rule="nonzero"/></clipPath><clipPath id="bcc32c2f6c"><path d="M 104.039062 67.183594 L 100.441406 57.339844 L 106.769531 55.027344 L 110.367188 64.871094 Z M 104.039062 67.183594 " clip-rule="nonzero"/></clipPath><clipPath id="7751685a6a"><path d="M 112.449219 90.203125 L 100.371094 57.148438 L 108.808594 54.066406 L 120.886719 87.117188 Z M 112.449219 90.203125 " clip-rule="nonzero"/></clipPath><clipPath id="beaaf758bd"><path d="M 100 57 L 110 57 L 110 67 L 100 67 Z M 100 57 " clip-rule="nonzero"/></clipPath><clipPath id="438cdb5a62"><path d="M 103.273438 66.019531 L 99.929688 56.875 L 106.261719 54.5625 L 109.601562 63.707031 Z M 103.273438 66.019531 " clip-rule="nonzero"/></clipPath><clipPath id="59005d7dda"><path d="M 110.882812 86.847656 L 100.089844 57.308594 L 107.824219 54.484375 L 118.617188 84.019531 Z M 110.882812 86.847656 " clip-rule="nonzero"/></clipPath><clipPath id="900131104b"><path d="M 36 16 L 57 16 L 57 108 L 36 108 Z M 36 16 " clip-rule="nonzero"/></clipPath><clipPath id="9d8a8ae31c"><path d="M 34.363281 17.773438 L 53.75 16.019531 L 61.984375 106.992188 L 42.597656 108.746094 Z M 34.363281 17.773438 " clip-rule="nonzero"/></clipPath><clipPath id="392f1dac74"><path d="M 34.363281 17.773438 L 53.75 16.019531 L 61.984375 106.992188 L 42.597656 108.746094 Z M 34.363281 17.773438 " clip-rule="nonzero"/></clipPath><clipPath id="72942840a5"><path d="M 17 30 L 36 30 L 36 105 L 17 105 Z M 17 30 " clip-rule="nonzero"/></clipPath><clipPath id="ba3a8501c3"><path d="M 15.289062 31.113281 L 34.675781 29.355469 L 41.359375 103.179688 L 21.96875 104.933594 Z M 15.289062 31.113281 " clip-rule="nonzero"/></clipPath><clipPath id="da0cfe3420"><path d="M 15.289062 31.113281 L 34.675781 29.355469 L 41.359375 103.179688 L 21.96875 104.933594 Z M 15.289062 31.113281 " clip-rule="nonzero"/></clipPath><clipPath id="38ec5c338e"><path d="M 10 78 L 18 78 L 18 100 L 10 100 Z M 10 78 " clip-rule="nonzero"/></clipPath><clipPath id="3a7139394c"><path d="M 12.804688 99.28125 L 7.742188 43.355469 L 15.199219 42.679688 L 20.261719 98.605469 Z M 12.804688 99.28125 " clip-rule="nonzero"/></clipPath><clipPath id="0d8032e2d1"><path d="M 12.804688 99.28125 L 7.742188 43.355469 L 15.199219 42.679688 L 20.261719 98.605469 Z M 12.804688 99.28125 " clip-rule="nonzero"/></clipPath><clipPath id="6219b595b1"><path d="M 7 43 L 19 43 L 19 78 L 7 78 Z M 7 43 " clip-rule="nonzero"/></clipPath><clipPath id="a00cf89e81"><path d="M 12.804688 99.28125 L 7.742188 43.355469 L 15.199219 42.679688 L 20.261719 98.605469 Z M 12.804688 99.28125 " clip-rule="nonzero"/></clipPath><clipPath id="25a7318404"><path d="M 12.804688 99.28125 L 7.742188 43.355469 L 15.199219 42.679688 L 20.261719 98.605469 Z M 12.804688 99.28125 " clip-rule="nonzero"/></clipPath><clipPath id="dfb5a9a165"><path d="M 100 57 L 109 57 L 109 67 L 100 67 Z M 100 57 " clip-rule="nonzero"/></clipPath><clipPath id="3e0df926f7"><path d="M 103.054688 66.019531 L 100.425781 58.214844 L 106.101562 56.300781 L 108.730469 64.105469 Z M 103.054688 66.019531 " clip-rule="nonzero"/></clipPath><clipPath id="f60b0e5d8f"><path d="M 109.375 84.78125 L 100.292969 57.820312 L 107.386719 55.429688 L 116.472656 82.390625 Z M 109.375 84.78125 " clip-rule="nonzero"/></clipPath><clipPath id="264dfeaa23"><path d="M 98 62 L 108 62 L 108 68 L 98 68 Z M 98 62 " clip-rule="nonzero"/></clipPath><clipPath id="0b4c743722"><path d="M 98.847656 67.113281 L 98.757812 62.621094 L 107.738281 62.441406 L 107.828125 66.933594 Z M 98.847656 67.113281 " clip-rule="nonzero"/></clipPath><clipPath id="2c3a77fd44"><path d="M 99.035156 84.722656 L 98.242188 45.046875 L 108.722656 44.839844 L 109.515625 84.511719 Z M 99.035156 84.722656 " clip-rule="nonzero"/></clipPath></defs><g clip-path="url(#43f36ffa1b)"><g clip-path="url(#814400c4c6)"><g fill="#000000" fill-opacity="1"><g transform="translate(44.928374, 76.127497)"><g><path d="M 3.96875 -1.515625 C 3.539062 0.128906 2.804688 0.816406 1.765625 0.546875 C 1.273438 0.421875 0.953125 0.113281 0.796875 -0.375 C 0.648438 -0.863281 0.679688 -1.507812 0.890625 -2.3125 C 1.097656 -3.09375 1.382812 -3.65625 1.75 -4 C 2.125 -4.351562 2.566406 -4.460938 3.078125 -4.328125 C 3.578125 -4.203125 3.898438 -3.898438 4.046875 -3.421875 C 4.203125 -2.941406 4.175781 -2.304688 3.96875 -1.515625 Z M 3.3125 -1.6875 C 3.507812 -2.4375 3.582031 -3 3.53125 -3.375 C 3.476562 -3.75 3.289062 -3.976562 2.96875 -4.0625 C 2.664062 -4.144531 2.40625 -4.039062 2.1875 -3.75 C 1.96875 -3.46875 1.753906 -2.929688 1.546875 -2.140625 C 1.335938 -1.335938 1.257812 -0.757812 1.3125 -0.40625 C 1.363281 -0.0507812 1.539062 0.164062 1.84375 0.25 C 2.15625 0.332031 2.425781 0.222656 2.65625 -0.078125 C 2.894531 -0.378906 3.113281 -0.914062 3.3125 -1.6875 Z M 3.3125 -1.6875 "/></g></g></g></g></g><g clip-path="url(#abd4218118)"><g clip-path="url(#bca5631203)"><g clip-path="url(#c0f9ebce0b)"><path fill="#ff914d" d="M 47.386719 68.519531 C 47.507812 69.355469 48.113281 69.992188 48.875 70.195312 C 49.132812 70.261719 49.410156 70.277344 49.691406 70.238281 C 101.078125 62.457031 153.011719 63.3125 204.058594 72.777344 C 205.15625 72.984375 206.21875 72.25 206.425781 71.140625 C 206.632812 70.03125 205.902344 68.960938 204.804688 68.761719 C 179.300781 64.03125 153.148438 61.414062 127.082031 60.984375 C 101.015625 60.554688 74.777344 62.308594 49.101562 66.195312 C 47.992188 66.363281 47.222656 67.40625 47.386719 68.519531 Z M 47.386719 68.519531 " fill-opacity="1" fill-rule="nonzero"/></g></g></g><g clip-path="url(#dcd8ff8976)"><path fill="#ff914d" d="M 137.648438 104.761719 C 137.964844 103.167969 138.152344 101.652344 138.316406 100.316406 C 138.46875 99.074219 138.609375 97.949219 138.828125 96.976562 C 131.652344 96.269531 128 91.953125 126.179688 88.339844 C 124.128906 84.257812 123.960938 80.285156 123.953125 80.117188 C 123.933594 79.53125 124.390625 79.039062 124.976562 79.019531 C 125.566406 78.996094 126.058594 79.453125 126.082031 80.039062 C 126.082031 80.082031 126.25 83.777344 128.113281 87.449219 C 130.457031 92.058594 134.332031 94.570312 139.632812 94.914062 C 140.21875 94.121094 141.679688 92.609375 145.605469 89.671875 C 148.996094 87.136719 153.105469 84.386719 156.882812 82.125 C 159.109375 80.792969 158.9375 76.101562 157.996094 74.070312 C 156.914062 71.734375 148.035156 62.480469 146.820312 61.859375 C 146.066406 61.480469 142.550781 62.175781 140.664062 62.546875 C 139.515625 62.773438 138.433594 62.988281 137.554688 63.105469 C 136.351562 63.265625 134.921875 62.980469 133.542969 62.710938 C 131.042969 62.214844 129.355469 61.96875 128.683594 63.007812 C 127.328125 65.113281 127.765625 65.914062 129.222656 67.914062 C 130.5 69.664062 135.957031 72.84375 143.425781 72.726562 C 143.527344 72.710938 143.632812 72.710938 143.742188 72.730469 C 143.976562 72.746094 144.191406 72.839844 144.359375 72.988281 C 147.445312 74.59375 149.621094 75.273438 149.644531 75.28125 C 150.207031 75.457031 150.519531 76.050781 150.34375 76.609375 C 150.203125 77.066406 149.785156 77.355469 149.328125 77.355469 C 149.226562 77.355469 149.121094 77.339844 149.015625 77.308594 C 148.9375 77.285156 147.503906 76.839844 145.300781 75.816406 C 145.769531 77.3125 146.375 78.785156 146.945312 79.28125 C 147.386719 79.664062 147.429688 80.335938 147.042969 80.777344 C 146.65625 81.21875 145.984375 81.261719 145.542969 80.875 C 144.15625 79.667969 143.222656 76.488281 142.816406 74.851562 C 138.640625 74.820312 135.335938 73.847656 133.246094 73.003906 C 130.632812 71.945312 128.484375 70.511719 127.503906 69.164062 C 126.957031 68.414062 126.484375 67.714844 126.167969 66.992188 C 125.761719 69.179688 124.730469 70.710938 122.941406 71.902344 C 121.832031 72.636719 120.554688 73.019531 119.238281 73.019531 C 118.730469 73.019531 118.21875 72.960938 117.707031 72.847656 C 115.761719 72.410156 114.054688 71.179688 113.023438 69.464844 C 112.753906 69.019531 112.5 68.207031 112.265625 67.164062 C 112.015625 67.375 111.742188 67.574219 111.441406 67.753906 C 110.453125 68.34375 109.300781 68.671875 108.253906 68.671875 C 108.058594 68.671875 107.871094 68.660156 107.683594 68.636719 C 105.390625 68.351562 103.617188 65.359375 102.171875 62.144531 C 102.011719 63.640625 101.835938 65.171875 101.6875 66.207031 C 101.484375 67.625 101.378906 77.996094 102.242188 81.648438 C 102.546875 82.925781 104.046875 84.867188 105.636719 86.925781 C 107.625 89.496094 109.878906 92.410156 110.753906 95.25 C 111.910156 99 110.714844 104.140625 109.921875 107.539062 C 109.710938 108.4375 105.414062 129.050781 104.542969 133.316406 C 108.734375 134.886719 116.316406 135.609375 122.316406 135.054688 C 129.039062 134.433594 135.355469 132.855469 138.679688 131.8125 C 138.246094 124.773438 137.417969 105.90625 137.648438 104.761719 " fill-opacity="1" fill-rule="nonzero"/></g><path fill="#ff914d" d="M 109.082031 50.492188 C 108.382812 50.316406 106.976562 50.0625 105.597656 50.0625 C 104.476562 50.0625 103.371094 50.230469 102.683594 50.742188 C 102.238281 51.074219 102.019531 51.527344 101.996094 52.175781 C 101.9375 53.632812 102.160156 55.261719 102.515625 56.761719 C 102.605469 56.921875 102.652344 57.105469 102.648438 57.300781 C 102.90625 58.277344 103.214844 59.183594 103.527344 59.925781 L 103.582031 60.058594 C 104.570312 62.394531 106.449219 66.34375 107.949219 66.53125 C 109.394531 66.714844 111.464844 65.632812 111.726562 64.230469 C 111.007812 59.585938 110.535156 53.457031 110.398438 51.574219 C 110.035156 51.015625 109.601562 50.628906 109.082031 50.492188 " fill-opacity="1" fill-rule="nonzero"/><path fill="#ff914d" d="M 102.582031 132.351562 C 102.644531 132.058594 102.742188 131.589844 102.867188 130.980469 " fill-opacity="1" fill-rule="nonzero"/><path fill="#ff914d" d="M 122.675781 48.320312 C 122.183594 47.96875 121.199219 47.339844 120.0625 46.957031 C 118.753906 46.519531 116.800781 46.367188 115.230469 47.257812 C 113.964844 47.976562 113.078125 49.28125 112.597656 51.144531 C 112.617188 53.691406 113.566406 61.601562 113.875 64.246094 C 114.191406 66.28125 114.523438 67.835938 114.847656 68.375 C 115.582031 69.589844 116.792969 70.46875 118.171875 70.777344 C 119.4375 71.0625 120.710938 70.832031 121.761719 70.136719 C 123.527344 68.960938 124.546875 67.339844 124.160156 62.90625 L 122.675781 48.320312 " fill-opacity="1" fill-rule="nonzero"/><path fill="#ff914d" d="M 124.953125 48.292969 L 126.511719 62.503906 C 126.625 62.296875 126.753906 62.082031 126.894531 61.859375 C 128.398438 59.527344 131.480469 60.136719 133.953125 60.628906 C 134.894531 60.8125 135.855469 61 136.640625 61.027344 L 137.59375 47.585938 C 136.882812 46.933594 134.953125 45.414062 132.359375 45.273438 C 131.453125 45.222656 128.316406 45.308594 124.953125 48.292969 " fill-opacity="1" fill-rule="nonzero"/><path fill="#ff914d" d="M 153.570312 53.855469 C 153.4375 53.515625 153.308594 53.171875 153.179688 52.832031 C 152.214844 50.261719 151.378906 48.042969 148.878906 47.230469 C 147.308594 46.71875 145.519531 46.542969 143.558594 46.707031 C 143.066406 46.769531 140.910156 47.375 140.085938 47.738281 C 139.992188 48.714844 139.707031 51.628906 138.855469 60.375 L 138.820312 60.371094 L 138.792969 60.75 C 139.253906 60.664062 139.746094 60.566406 140.25 60.464844 C 143.945312 59.738281 146.464844 59.308594 147.773438 59.960938 C 147.902344 60.027344 148.074219 60.140625 148.277344 60.289062 C 148.636719 58.34375 149.097656 55.640625 149.097656 54.648438 C 149.097656 54.0625 149.574219 53.585938 150.160156 53.585938 C 150.746094 53.585938 151.222656 54.0625 151.222656 54.648438 C 151.222656 56.210938 150.40625 60.507812 150.132812 61.902344 C 151.925781 63.59375 154.304688 66.089844 156.285156 68.363281 C 156.496094 61.324219 154.871094 57.167969 153.644531 54.042969 L 153.570312 53.855469 " fill-opacity="1" fill-rule="nonzero"/><path fill="#ff914d" d="M 140.132812 47.277344 C 140.128906 47.285156 140.128906 47.292969 140.128906 47.304688 C 140.128906 47.296875 140.128906 47.285156 140.132812 47.277344 " fill-opacity="1" fill-rule="nonzero"/><g clip-path="url(#78495ceaa4)"><path fill="#3b3939" d="M 159.925781 73.179688 C 159.671875 72.628906 159.074219 71.773438 158.28125 70.761719 C 158.988281 61.851562 156.972656 56.699219 155.625 53.269531 L 155.554688 53.085938 C 155.421875 52.75 155.296875 52.417969 155.171875 52.085938 C 154.109375 49.261719 153.007812 46.34375 149.539062 45.214844 C 147.699219 44.613281 145.628906 44.40625 143.382812 44.59375 C 142.972656 44.625 141.71875 44.957031 140.792969 45.242188 C 139.992188 45.492188 139.382812 45.707031 138.941406 45.9375 C 137.941406 45.042969 135.632812 43.324219 132.472656 43.152344 C 129.632812 43.003906 126.441406 44.246094 123.78125 46.5 C 123.148438 46.0625 122.042969 45.386719 120.742188 44.949219 C 119.894531 44.664062 116.921875 43.855469 114.179688 45.410156 C 112.777344 46.207031 111.722656 47.457031 111.027344 49.136719 C 110.597656 48.808594 110.128906 48.570312 109.613281 48.4375 L 109.609375 48.4375 C 109.046875 48.292969 104.039062 47.089844 101.414062 49.039062 C 100.453125 49.753906 99.921875 50.808594 99.867188 52.09375 C 99.804688 53.699219 100.039062 55.628906 100.5 57.5 C 100.378906 58.78125 99.90625 63.636719 99.582031 65.910156 C 99.355469 67.480469 99.21875 78.089844 100.171875 82.132812 C 100.578125 83.859375 102.144531 85.878906 103.953125 88.222656 C 105.832031 90.648438 107.957031 93.402344 108.722656 95.875 C 109.710938 99.078125 108.589844 103.878906 107.847656 107.058594 C 107.683594 107.757812 104.039062 125.347656 102.867188 130.980469 C 103.363281 130.015625 104.066406 128.527344 104.480469 126.613281 C 106.378906 117.804688 110.058594 102.503906 110.003906 99.4375 C 109.957031 96.667969 109.257812 94.328125 108.285156 92.570312 C 105.222656 87.039062 101.207031 85.894531 101.207031 81.890625 C 101.207031 80.179688 100.558594 79.214844 100.441406 76.359375 C 100.289062 72.523438 100.445312 65.738281 100.773438 64.976562 C 101.347656 63.640625 100.824219 52.898438 100.824219 52.898438 L 101.726562 50.421875 L 103.121094 49.082031 L 107.328125 49.273438 L 111.152344 50.417969 L 114.019531 46.984375 L 117.691406 45.570312 L 123.613281 47.257812 C 124.1875 47.179688 126.46875 46.011719 128.265625 45.042969 C 130.542969 43.8125 133.242188 43.542969 135.886719 45.140625 C 137.734375 46.257812 136.585938 45.148438 138.734375 46.835938 C 139.640625 47.550781 141.304688 46.457031 142.75 45.886719 C 144.878906 45.046875 149.582031 46.539062 150.46875 47.363281 C 153.269531 49.972656 154.71875 54.65625 155.121094 55.800781 C 155.59375 57.148438 156.535156 58.773438 157.128906 64.339844 C 157.359375 66.492188 157.21875 68.742188 157.765625 70.878906 C 158.097656 72.183594 159.152344 73.84375 159.34375 74.261719 C 160.492188 76.738281 160.253906 81.347656 157.429688 83.035156 C 149.78125 87.613281 140.984375 94.097656 140.21875 96.003906 C 139.457031 97.910156 139.457031 101.15625 138.691406 104.96875 C 138.558594 105.632812 139.402344 114.902344 139.808594 122.976562 C 139.949219 125.726562 140.1875 127.210938 140.652344 129.101562 C 140.410156 124.5 140.214844 119.898438 140.035156 115.292969 C 139.902344 111.945312 139.484375 108.433594 139.753906 105.089844 C 139.976562 102.355469 140.179688 98.96875 141.207031 96.398438 C 141.769531 94.996094 149.777344 88.851562 157.980469 83.945312 C 161.542969 81.8125 161.140625 75.804688 159.925781 73.179688 " fill-opacity="1" fill-rule="nonzero"/></g><path fill="#3b3939" d="M 156.285156 68.363281 C 154.304688 66.089844 151.925781 63.59375 150.132812 61.902344 C 150.40625 60.507812 151.222656 56.210938 151.222656 54.648438 C 151.222656 54.0625 150.746094 53.585938 150.160156 53.585938 C 149.574219 53.585938 149.097656 54.0625 149.097656 54.648438 C 149.097656 55.640625 148.636719 58.34375 148.277344 60.289062 C 148.074219 60.140625 147.902344 60.027344 147.773438 59.960938 C 146.464844 59.308594 143.945312 59.738281 140.25 60.464844 C 139.746094 60.566406 139.253906 60.664062 138.792969 60.75 L 138.820312 60.371094 L 138.855469 60.375 C 139.707031 51.628906 139.992188 48.714844 140.085938 47.738281 C 140.910156 47.375 143.066406 46.769531 143.558594 46.707031 C 145.519531 46.542969 147.308594 46.71875 148.878906 47.230469 C 151.378906 48.042969 152.214844 50.261719 153.179688 52.832031 C 153.308594 53.171875 153.4375 53.515625 153.570312 53.855469 L 153.644531 54.042969 C 154.871094 57.167969 156.496094 61.324219 156.285156 68.363281 Z M 140.132812 47.277344 C 140.128906 47.285156 140.128906 47.296875 140.128906 47.304688 C 140.128906 47.292969 140.128906 47.285156 140.132812 47.277344 Z M 136.640625 61.027344 C 135.855469 61 134.894531 60.8125 133.953125 60.628906 C 131.480469 60.136719 128.398438 59.527344 126.894531 61.859375 C 126.753906 62.082031 126.625 62.296875 126.511719 62.503906 L 124.953125 48.292969 C 128.316406 45.308594 131.453125 45.222656 132.359375 45.273438 C 134.953125 45.414062 136.882812 46.933594 137.59375 47.585938 Z M 121.761719 70.136719 C 120.710938 70.832031 119.4375 71.0625 118.171875 70.777344 C 116.792969 70.46875 115.582031 69.589844 114.847656 68.375 C 114.523438 67.835938 114.191406 66.28125 113.875 64.246094 C 113.566406 61.601562 112.617188 53.691406 112.597656 51.144531 C 113.078125 49.28125 113.964844 47.976562 115.230469 47.257812 C 116.800781 46.367188 118.753906 46.519531 120.0625 46.957031 C 121.199219 47.339844 122.183594 47.96875 122.675781 48.320312 L 124.160156 62.90625 C 124.546875 67.339844 123.527344 68.960938 121.761719 70.136719 Z M 107.949219 66.53125 C 106.449219 66.34375 104.570312 62.394531 103.582031 60.058594 L 103.527344 59.925781 C 103.214844 59.183594 102.90625 58.277344 102.648438 57.300781 C 102.652344 57.105469 102.605469 56.921875 102.515625 56.761719 C 102.160156 55.261719 101.9375 53.632812 101.996094 52.175781 C 102.019531 51.527344 102.238281 51.074219 102.683594 50.742188 C 103.371094 50.230469 104.476562 50.0625 105.597656 50.0625 C 106.976562 50.0625 108.382812 50.316406 109.082031 50.492188 C 109.601562 50.628906 110.035156 51.015625 110.398438 51.574219 C 110.535156 53.457031 111.007812 59.585938 111.726562 64.230469 C 111.464844 65.632812 109.394531 66.714844 107.949219 66.53125 Z M 138.691406 104.96875 C 139.457031 101.15625 139.457031 97.910156 140.21875 96.003906 C 140.984375 94.097656 149.78125 87.613281 157.429688 83.035156 C 160.253906 81.347656 160.492188 76.738281 159.34375 74.261719 C 159.152344 73.84375 158.097656 72.183594 157.765625 70.878906 C 157.21875 68.742188 157.359375 66.492188 157.128906 64.339844 C 156.535156 58.773438 155.59375 57.148438 155.121094 55.800781 C 154.71875 54.65625 153.269531 49.972656 150.46875 47.363281 C 149.582031 46.539062 144.878906 45.046875 142.75 45.886719 C 141.304688 46.457031 139.640625 47.550781 138.734375 46.835938 C 136.585938 45.148438 137.734375 46.257812 135.886719 45.140625 C 133.242188 43.542969 130.542969 43.8125 128.265625 45.042969 C 126.46875 46.011719 124.1875 47.179688 123.613281 47.257812 L 117.691406 45.570312 L 114.019531 46.984375 L 111.152344 50.417969 L 107.328125 49.273438 L 103.121094 49.082031 L 101.726562 50.421875 L 100.824219 52.898438 C 100.824219 52.898438 101.347656 63.640625 100.773438 64.976562 C 100.445312 65.738281 100.289062 72.523438 100.441406 76.359375 C 100.558594 79.214844 101.207031 80.179688 101.207031 81.890625 C 101.207031 85.894531 105.222656 87.039062 108.285156 92.570312 C 109.257812 94.328125 109.957031 96.667969 110.003906 99.4375 C 110.058594 102.503906 106.378906 117.804688 104.480469 126.613281 C 104.066406 128.527344 103.363281 130.015625 102.867188 130.980469 C 102.742188 131.589844 102.644531 132.058594 102.582031 132.351562 C 103.09375 132.703125 103.761719 133.023438 104.542969 133.316406 C 105.414062 129.050781 109.710938 108.4375 109.921875 107.539062 C 110.714844 104.140625 111.910156 99 110.753906 95.25 C 109.878906 92.410156 107.625 89.496094 105.636719 86.925781 C 104.046875 84.867188 102.546875 82.925781 102.242188 81.648438 C 101.378906 77.996094 101.484375 67.625 101.6875 66.207031 C 101.835938 65.171875 102.011719 63.640625 102.171875 62.144531 C 103.617188 65.359375 105.390625 68.351562 107.683594 68.636719 C 107.871094 68.660156 108.058594 68.671875 108.253906 68.671875 C 109.300781 68.671875 110.453125 68.34375 111.441406 67.753906 C 111.742188 67.574219 112.015625 67.375 112.265625 67.164062 C 112.5 68.207031 112.753906 69.019531 113.023438 69.464844 C 114.054688 71.179688 115.761719 72.410156 117.707031 72.847656 C 118.21875 72.960938 118.730469 73.019531 119.238281 73.019531 C 120.554688 73.019531 121.832031 72.636719 122.941406 71.902344 C 124.730469 70.710938 125.761719 69.179688 126.167969 66.992188 C 126.484375 67.714844 126.957031 68.414062 127.503906 69.164062 C 128.484375 70.511719 130.632812 71.945312 133.246094 73.003906 C 135.335938 73.847656 138.640625 74.820312 142.816406 74.851562 C 143.222656 76.488281 144.15625 79.667969 145.542969 80.875 C 145.984375 81.261719 146.65625 81.21875 147.042969 80.777344 C 147.429688 80.335938 147.386719 79.664062 146.945312 79.28125 C 146.375 78.785156 145.769531 77.3125 145.300781 75.816406 C 147.503906 76.839844 148.9375 77.285156 149.015625 77.308594 C 149.121094 77.339844 149.226562 77.355469 149.328125 77.355469 C 149.785156 77.355469 150.203125 77.066406 150.34375 76.609375 C 150.519531 76.050781 150.207031 75.457031 149.644531 75.28125 C 149.621094 75.273438 147.445312 74.59375 144.359375 72.988281 C 144.191406 72.839844 143.976562 72.746094 143.742188 72.730469 C 143.632812 72.710938 143.527344 72.710938 143.425781 72.726562 C 135.957031 72.84375 130.5 69.664062 129.222656 67.914062 C 127.765625 65.914062 127.328125 65.113281 128.683594 63.007812 C 129.355469 61.96875 131.042969 62.214844 133.542969 62.710938 C 134.921875 62.980469 136.351562 63.265625 137.554688 63.105469 C 138.433594 62.988281 139.515625 62.773438 140.664062 62.546875 C 142.550781 62.175781 146.066406 61.480469 146.820312 61.859375 C 148.035156 62.480469 156.914062 71.734375 157.996094 74.070312 C 158.9375 76.101562 159.109375 80.792969 156.882812 82.125 C 153.105469 84.386719 148.996094 87.136719 145.605469 89.671875 C 141.679688 92.609375 140.21875 94.121094 139.632812 94.914062 C 134.332031 94.570312 130.457031 92.058594 128.113281 87.449219 C 126.25 83.777344 126.082031 80.082031 126.082031 80.039062 C 126.058594 79.453125 125.566406 78.996094 124.976562 79.019531 C 124.390625 79.039062 123.933594 79.53125 123.953125 80.117188 C 123.960938 80.285156 124.128906 84.257812 126.179688 88.339844 C 128 91.953125 131.652344 96.269531 138.828125 96.976562 C 138.609375 97.949219 138.398438 99.050781 138.246094 100.292969 C 138.082031 101.628906 137.671875 103.246094 137.554688 105.574219 C 137.457031 107.425781 138.246094 124.773438 138.679688 131.8125 C 139.652344 131.507812 140.371094 131.246094 140.765625 131.070312 C 140.730469 130.507812 140.695312 129.84375 140.652344 129.101562 C 140.1875 127.210938 139.949219 125.726562 139.808594 122.976562 C 139.402344 114.902344 138.558594 105.632812 138.691406 104.96875 " fill-opacity="1" fill-rule="nonzero"/><g clip-path="url(#ee357b0604)"><g clip-path="url(#86fcdedfa3)"><g fill="#000000" fill-opacity="1"><g transform="translate(147.496203, 92.244279)"><g><path d="M 3.984375 -1.453125 C 3.535156 0.179688 2.796875 0.851562 1.765625 0.5625 C 1.265625 0.425781 0.941406 0.113281 0.796875 -0.375 C 0.660156 -0.863281 0.703125 -1.503906 0.921875 -2.296875 C 1.140625 -3.078125 1.429688 -3.640625 1.796875 -3.984375 C 2.171875 -4.335938 2.617188 -4.441406 3.140625 -4.296875 C 3.640625 -4.160156 3.957031 -3.847656 4.09375 -3.359375 C 4.238281 -2.878906 4.203125 -2.242188 3.984375 -1.453125 Z M 3.34375 -1.625 C 3.550781 -2.382812 3.628906 -2.953125 3.578125 -3.328125 C 3.535156 -3.703125 3.351562 -3.9375 3.03125 -4.03125 C 2.726562 -4.113281 2.460938 -4.015625 2.234375 -3.734375 C 2.015625 -3.453125 1.796875 -2.914062 1.578125 -2.125 C 1.359375 -1.332031 1.269531 -0.753906 1.3125 -0.390625 C 1.363281 -0.0234375 1.539062 0.195312 1.84375 0.28125 C 2.15625 0.375 2.429688 0.269531 2.671875 -0.03125 C 2.910156 -0.332031 3.132812 -0.863281 3.34375 -1.625 Z M 3.34375 -1.625 "/></g></g></g></g></g><g clip-path="url(#72765b0d58)"><g clip-path="url(#4cc3e55476)"><g clip-path="url(#9b1e0912d6)"><path fill="#ff914d" d="M 40.203125 67.945312 C 40.332031 68.886719 41.011719 69.617188 41.871094 69.855469 C 42.164062 69.9375 42.476562 69.960938 42.796875 69.917969 C 101.199219 61.988281 160.117188 63.808594 217.914062 75.320312 C 219.160156 75.566406 220.375 74.757812 220.625 73.511719 C 220.871094 72.261719 220.054688 71.042969 218.816406 70.800781 C 189.933594 65.046875 160.292969 61.667969 130.722656 60.757812 C 101.152344 59.84375 71.363281 61.390625 42.175781 65.351562 C 40.917969 65.523438 40.035156 66.683594 40.203125 67.945312 Z M 40.203125 67.945312 " fill-opacity="1" fill-rule="nonzero"/></g></g></g><g clip-path="url(#e12b4df3b7)"><g clip-path="url(#481c538b38)"><g clip-path="url(#de560052ba)"><path fill="#ff914d" d="M 214.113281 55.355469 C 214.234375 53.890625 214.714844 52.476562 215.507812 51.242188 L 219.054688 47.628906 C 220.597656 46.058594 221.496094 43.992188 221.597656 41.8125 L 221.40625 18.898438 C 221.433594 18.320312 220.988281 17.820312 220.421875 17.773438 C 219.851562 17.726562 219.363281 18.152344 219.339844 18.730469 L 218.675781 39.019531 C 218.640625 39.820312 217.996094 40.425781 217.246094 40.363281 C 216.496094 40.300781 215.933594 39.597656 215.984375 38.800781 L 217.058594 18.542969 C 217.101562 17.964844 216.667969 17.464844 216.101562 17.417969 C 215.53125 17.371094 215.039062 17.792969 214.988281 18.371094 L 213.535156 38.597656 C 213.476562 39.394531 212.820312 39.996094 212.070312 39.9375 C 211.320312 39.875 210.769531 39.171875 210.84375 38.375 L 212.71875 18.183594 C 212.757812 17.605469 212.339844 17.109375 211.773438 17.0625 C 211.203125 17.015625 210.695312 17.4375 210.636719 18.011719 L 208.382812 38.171875 C 208.300781 38.96875 207.628906 39.570312 206.878906 39.507812 C 206.128906 39.445312 205.59375 38.746094 205.6875 37.953125 L 208.355469 17.824219 C 208.425781 17.25 208.011719 16.753906 207.445312 16.707031 C 206.875 16.660156 206.355469 17.078125 206.285156 17.65625 L 202.351562 40.226562 C 202.09375 42.394531 202.648438 44.574219 203.90625 46.378906 L 206.8125 50.527344 C 207.398438 51.882812 207.640625 53.347656 207.519531 54.8125 C 207.519531 54.8125 207.230469 76.648438 202.664062 97.371094 C 202.664062 97.371094 199.601562 107.714844 206.425781 108.277344 C 213.25 108.839844 211.921875 98.132812 211.921875 98.132812 C 210.824219 76.945312 214.113281 55.355469 214.113281 55.355469 Z M 214.113281 55.355469 " fill-opacity="1" fill-rule="nonzero"/></g></g></g><g clip-path="url(#461841313f)"><g clip-path="url(#ea09e23e27)"><g clip-path="url(#e1fe6dfeda)"><path fill="#ff914d" d="M 232.394531 57.109375 C 234.859375 55.859375 239.839844 54.335938 239.765625 45.855469 C 239.695312 37.671875 236.5625 30.980469 232.492188 30.382812 C 232.546875 30.386719 232.597656 30.386719 232.648438 30.390625 C 232.605469 30.386719 232.566406 30.382812 232.523438 30.378906 C 232.445312 30.371094 232.367188 30.367188 232.292969 30.363281 C 232.210938 30.355469 232.128906 30.34375 232.046875 30.339844 C 231.976562 30.332031 231.90625 30.328125 231.835938 30.324219 C 231.761719 30.316406 231.6875 30.308594 231.613281 30.304688 C 231.546875 30.296875 231.484375 30.296875 231.417969 30.289062 C 231.472656 30.296875 231.53125 30.304688 231.585938 30.3125 C 227.695312 30.292969 223.25 36.34375 221.886719 44.382812 C 220.472656 52.742188 224.964844 54.894531 226.933594 56.660156 C 228.386719 57.964844 228.035156 60.425781 228.035156 60.425781 C 228.035156 60.425781 227.761719 62.453125 227.070312 66.765625 C 226.40625 70.890625 222.785156 92.484375 222.457031 96.429688 C 222.152344 100.136719 221.445312 103.554688 224.898438 104.101562 C 224.859375 104.101562 224.820312 104.105469 224.78125 104.105469 L 224.710938 104.097656 C 224.84375 104.113281 224.984375 104.125 225.128906 104.132812 C 225.285156 104.152344 225.445312 104.167969 225.617188 104.171875 L 225.632812 104.171875 C 225.71875 104.183594 225.808594 104.191406 225.898438 104.199219 C 225.832031 104.191406 225.769531 104.179688 225.707031 104.171875 C 229.875 104.25 229.589844 97.574219 229.589844 97.574219 C 229.589844 97.574219 230.394531 71.429688 230.433594 67.066406 C 230.476562 62.34375 230.574219 60.632812 230.574219 60.632812 C 230.574219 60.632812 230.617188 58.015625 232.394531 57.109375 " fill-opacity="1" fill-rule="nonzero"/></g></g></g><g clip-path="url(#27f95dc8f6)"><g clip-path="url(#63da448866)"><g clip-path="url(#227b3a7180)"><path fill="#ff914d" d="M 246.300781 78.488281 L 241.347656 78.078125 L 239.824219 96.578125 C 239.722656 97.832031 240.621094 98.925781 241.839844 99.027344 L 242.390625 99.070312 C 243.605469 99.171875 244.671875 98.238281 244.777344 96.988281 Z M 246.300781 78.488281 " fill-opacity="1" fill-rule="nonzero"/></g></g></g><g clip-path="url(#5bef45ee6f)"><g clip-path="url(#4e7d60d8e8)"><g clip-path="url(#b06595f151)"><path fill="#ff914d" d="M 246.429688 43.996094 C 245.59375 44.410156 244.292969 45.433594 242.816406 50.457031 C 242.039062 53.09375 241.675781 55.300781 240.957031 59.714844 C 240.761719 60.886719 240.589844 62.0625 240.425781 63.308594 C 240.222656 64.847656 240.101562 65.996094 240.011719 66.871094 C 239.707031 69.847656 239.4375 72.5625 239.222656 74.765625 C 239.25 75.046875 239.351562 75.675781 239.78125 76.277344 C 240.320312 77.03125 241.03125 77.269531 241.269531 77.335938 L 246.359375 77.753906 L 249.042969 45.1875 C 249.058594 44.886719 249.066406 44.144531 248.632812 43.757812 C 248.003906 43.191406 246.832031 43.792969 246.429688 43.996094 Z M 246.429688 43.996094 " fill-opacity="1" fill-rule="nonzero"/></g></g></g><g clip-path="url(#2e5c427f9b)"><g clip-path="url(#9a407375ed)"><g fill="#000000" fill-opacity="1"><g transform="translate(79.600347, 91.294575)"><g><path d="M 3.84375 -1.828125 C 3.539062 -0.148438 2.859375 0.59375 1.796875 0.40625 C 1.296875 0.3125 0.953125 0.0234375 0.765625 -0.453125 C 0.585938 -0.929688 0.570312 -1.578125 0.71875 -2.390625 C 0.863281 -3.179688 1.101562 -3.765625 1.4375 -4.140625 C 1.769531 -4.523438 2.195312 -4.671875 2.71875 -4.578125 C 3.226562 -4.484375 3.578125 -4.203125 3.765625 -3.734375 C 3.960938 -3.265625 3.988281 -2.628906 3.84375 -1.828125 Z M 3.171875 -1.953125 C 3.304688 -2.710938 3.332031 -3.273438 3.25 -3.640625 C 3.175781 -4.015625 2.972656 -4.226562 2.640625 -4.28125 C 2.335938 -4.332031 2.085938 -4.207031 1.890625 -3.90625 C 1.691406 -3.613281 1.519531 -3.066406 1.375 -2.265625 C 1.226562 -1.453125 1.191406 -0.863281 1.265625 -0.5 C 1.347656 -0.144531 1.539062 0.0546875 1.84375 0.109375 C 2.164062 0.160156 2.429688 0.0234375 2.640625 -0.296875 C 2.847656 -0.617188 3.023438 -1.171875 3.171875 -1.953125 Z M 3.171875 -1.953125 "/></g></g></g></g></g><g clip-path="url(#a1eebeaa15)"><g clip-path="url(#cd0b0c8406)"><g clip-path="url(#e81e686d61)"><path fill="#ff914d" d="M 11.398438 75.609375 C 11.589844 76.445312 12.261719 77.046875 13.054688 77.1875 C 13.324219 77.234375 13.605469 77.230469 13.890625 77.164062 C 65.6875 65.132812 118.765625 61.816406 171.648438 67.316406 C 172.789062 67.433594 173.808594 66.601562 173.929688 65.460938 C 174.050781 64.316406 173.214844 63.289062 172.078125 63.175781 C 145.652344 60.429688 118.746094 59.878906 92.109375 61.542969 C 65.46875 63.203125 38.835938 67.097656 12.953125 73.109375 C 11.835938 73.371094 11.136719 74.488281 11.398438 75.609375 Z M 11.398438 75.609375 " fill-opacity="1" fill-rule="nonzero"/></g></g></g><g clip-path="url(#f8a555ea77)"><g clip-path="url(#bcc32c2f6c)"><g clip-path="url(#7751685a6a)"><path fill="#3b3939" d="M 120.597656 87.113281 C 120.730469 86.984375 120.765625 86.792969 120.707031 86.625 C 120.683594 86.566406 120.652344 86.511719 120.609375 86.464844 C 112.667969 77.835938 106.199219 68.007812 101.378906 57.257812 C 101.273438 57.027344 101.007812 56.921875 100.785156 57.023438 C 100.558594 57.125 100.460938 57.394531 100.566406 57.625 C 102.976562 63 105.84375 68.222656 109.089844 73.15625 C 112.339844 78.085938 115.996094 82.773438 119.964844 87.085938 C 120.136719 87.273438 120.417969 87.285156 120.597656 87.113281 Z M 120.597656 87.113281 " fill-opacity="1" fill-rule="nonzero"/></g></g></g><g clip-path="url(#beaaf758bd)"><g clip-path="url(#438cdb5a62)"><g clip-path="url(#59005d7dda)"><path fill="#3b3939" d="M 118.351562 84.015625 C 118.472656 83.898438 118.507812 83.726562 118.453125 83.574219 C 118.4375 83.523438 118.40625 83.476562 118.367188 83.433594 C 111.175781 75.761719 105.335938 67 101.011719 57.402344 C 100.917969 57.195312 100.675781 57.101562 100.46875 57.195312 C 100.261719 57.289062 100.171875 57.535156 100.265625 57.738281 C 102.425781 62.535156 105.007812 67.195312 107.941406 71.59375 C 110.871094 75.988281 114.179688 80.164062 117.773438 83.996094 C 117.929688 84.164062 118.1875 84.171875 118.351562 84.015625 Z M 118.351562 84.015625 " fill-opacity="1" fill-rule="nonzero"/></g></g></g><g clip-path="url(#900131104b)"><g clip-path="url(#9d8a8ae31c)"><g clip-path="url(#392f1dac74)"><path fill="#ff914d" d="M 50.773438 54.414062 C 50.640625 52.953125 50.875 51.476562 51.445312 50.125 L 54.316406 45.953125 C 55.566406 44.144531 56.097656 41.953125 55.824219 39.789062 L 51.707031 17.25 C 51.632812 16.671875 51.105469 16.257812 50.539062 16.308594 C 49.972656 16.359375 49.566406 16.859375 49.636719 17.433594 L 52.46875 37.539062 C 52.566406 38.332031 52.039062 39.039062 51.289062 39.105469 C 50.539062 39.175781 49.863281 38.578125 49.777344 37.785156 L 47.359375 17.640625 C 47.300781 17.066406 46.789062 16.648438 46.222656 16.699219 C 45.65625 16.75 45.242188 17.253906 45.292969 17.828125 L 47.332031 38.003906 C 47.410156 38.800781 46.867188 39.507812 46.117188 39.574219 C 45.367188 39.644531 44.703125 39.046875 44.640625 38.25 L 43.023438 18.035156 C 42.960938 17.457031 42.464844 17.039062 41.898438 17.089844 C 41.328125 17.140625 40.902344 17.644531 40.941406 18.222656 L 42.179688 38.472656 C 42.238281 39.269531 41.679688 39.976562 40.929688 40.042969 C 40.179688 40.113281 39.53125 39.511719 39.488281 38.714844 L 38.664062 18.429688 C 38.632812 17.851562 38.140625 17.429688 37.574219 17.480469 C 37.003906 17.535156 36.5625 18.039062 36.59375 18.617188 L 36.589844 41.53125 C 36.710938 43.707031 37.632812 45.761719 39.179688 47.324219 L 42.753906 50.910156 C 43.566406 52.144531 44.050781 53.546875 44.183594 55.007812 C 44.183594 55.007812 47.648438 76.570312 46.707031 97.773438 C 46.707031 97.773438 45.464844 108.488281 52.28125 107.871094 C 59.101562 107.253906 55.957031 96.933594 55.957031 96.933594 C 51.238281 76.246094 50.773438 54.414062 50.773438 54.414062 Z M 50.773438 54.414062 " fill-opacity="1" fill-rule="nonzero"/></g></g></g><g clip-path="url(#72942840a5)"><g clip-path="url(#ba3a8501c3)"><g clip-path="url(#da0cfe3420)"><path fill="#ff914d" d="M 29.90625 56.554688 C 32.121094 54.898438 36.765625 52.542969 35.238281 44.199219 C 33.761719 36.152344 29.527344 30.097656 25.417969 30.207031 C 25.46875 30.199219 25.519531 30.191406 25.570312 30.1875 C 25.527344 30.191406 25.488281 30.191406 25.445312 30.199219 C 25.367188 30.203125 25.289062 30.210938 25.214844 30.21875 C 25.132812 30.226562 25.050781 30.230469 24.96875 30.242188 C 24.898438 30.242188 24.828125 30.253906 24.757812 30.261719 C 24.683594 30.265625 24.609375 30.269531 24.535156 30.28125 C 24.46875 30.28125 24.40625 30.292969 24.339844 30.296875 C 24.398438 30.292969 24.453125 30.292969 24.511719 30.292969 C 20.675781 30.941406 17.332031 37.664062 17.371094 45.816406 C 17.410156 54.292969 22.203125 55.648438 24.445312 57.046875 C 26.101562 58.082031 26.179688 60.566406 26.179688 60.566406 C 26.179688 60.566406 26.257812 62.609375 26.3125 66.976562 C 26.371094 71.15625 26.503906 93.050781 26.863281 96.992188 C 27.199219 100.699219 27.085938 104.1875 30.585938 104.136719 C 30.542969 104.140625 30.507812 104.152344 30.46875 104.15625 L 30.398438 104.164062 C 30.53125 104.15625 30.671875 104.144531 30.816406 104.125 C 30.972656 104.117188 31.132812 104.105469 31.300781 104.082031 L 31.320312 104.078125 C 31.40625 104.074219 31.492188 104.066406 31.585938 104.058594 C 31.519531 104.0625 31.457031 104.0625 31.390625 104.066406 C 35.511719 103.425781 34.085938 96.898438 34.085938 96.898438 C 34.085938 96.898438 30.390625 71.003906 29.683594 66.695312 C 28.914062 62.035156 28.71875 60.335938 28.71875 60.335938 C 28.71875 60.335938 28.308594 57.75 29.90625 56.554688 " fill-opacity="1" fill-rule="nonzero"/></g></g></g><g clip-path="url(#38ec5c338e)"><g clip-path="url(#3a7139394c)"><g clip-path="url(#0d8032e2d1)"><path fill="#ff914d" d="M 10.996094 78.511719 L 15.945312 78.0625 L 17.617188 96.546875 C 17.730469 97.800781 16.839844 98.902344 15.621094 99.011719 L 15.070312 99.0625 C 13.855469 99.171875 12.78125 98.246094 12.667969 96.996094 Z M 10.996094 78.511719 " fill-opacity="1" fill-rule="nonzero"/></g></g></g><g clip-path="url(#6219b595b1)"><g clip-path="url(#a00cf89e81)"><g clip-path="url(#25a7318404)"><path fill="#ff914d" d="M 10.589844 44.019531 C 11.425781 44.425781 12.734375 45.441406 14.253906 50.449219 C 15.050781 53.082031 15.429688 55.285156 16.1875 59.695312 C 16.390625 60.867188 16.574219 62.039062 16.75 63.28125 C 16.960938 64.820312 17.089844 65.96875 17.1875 66.84375 C 17.519531 69.816406 17.808594 72.53125 18.042969 74.730469 C 18.015625 75.011719 17.921875 75.640625 17.496094 76.246094 C 16.964844 77.007812 16.253906 77.25 16.015625 77.316406 L 10.929688 77.777344 L 7.984375 45.230469 C 7.964844 44.933594 7.949219 44.191406 8.378906 43.796875 C 9.003906 43.230469 10.183594 43.820312 10.589844 44.019531 Z M 10.589844 44.019531 " fill-opacity="1" fill-rule="nonzero"/></g></g></g><g clip-path="url(#dfb5a9a165)"><g clip-path="url(#3e0df926f7)"><g clip-path="url(#f60b0e5d8f)"><path fill="#3b3939" d="M 116.230469 82.386719 C 116.34375 82.285156 116.378906 82.128906 116.335938 81.992188 C 116.320312 81.945312 116.292969 81.902344 116.257812 81.863281 C 109.914062 74.757812 104.820312 66.703125 101.125 57.917969 C 101.042969 57.730469 100.828125 57.640625 100.636719 57.71875 C 100.449219 57.800781 100.359375 58.019531 100.441406 58.207031 C 102.285156 62.597656 104.519531 66.871094 107.074219 70.914062 C 109.628906 74.957031 112.535156 78.808594 115.707031 82.359375 C 115.84375 82.511719 116.078125 82.523438 116.230469 82.386719 Z M 116.230469 82.386719 " fill-opacity="1" fill-rule="nonzero"/></g></g></g><g clip-path="url(#264dfeaa23)"><g clip-path="url(#0b4c743722)"><g clip-path="url(#2c3a77fd44)"><path fill="#ff914d" d="M 109.199219 84.394531 C 109.394531 84.304688 109.507812 84.113281 109.503906 83.910156 C 109.503906 83.84375 109.488281 83.773438 109.457031 83.707031 C 103.96875 71.605469 100.554688 58.765625 99.3125 45.542969 C 99.285156 45.253906 99.03125 45.046875 98.746094 45.074219 C 98.460938 45.097656 98.25 45.355469 98.277344 45.636719 C 98.898438 52.246094 100.082031 58.863281 101.792969 65.308594 C 103.507812 71.753906 105.765625 78.089844 108.507812 84.136719 C 108.628906 84.394531 108.9375 84.511719 109.199219 84.394531 Z M 109.199219 84.394531 " fill-opacity="1" fill-rule="nonzero"/></g></g></g></svg>