<svg xmlns="http://www.w3.org/2000/svg" xmlns:xlink="http://www.w3.org/1999/xlink" width="184" zoomAndPan="magnify" viewBox="0 0 138 137.999998" height="184" preserveAspectRatio="xMidYMid meet" version="1.0"><defs><clipPath id="ef8920cbf2"><path d="M 0.511719 0.0820312 L 137.761719 0.0820312 L 137.761719 138 L 0.511719 138 Z M 0.511719 0.0820312 " clip-rule="nonzero"/></clipPath></defs><g clip-path="url(#ef8920cbf2)"><path fill="#ffffff" d="M 89.382812 48.867188 C 89.019531 48.804688 89.144531 48.582031 89.226562 48.433594 C 89.433594 48.039062 89.785156 47.765625 90.097656 47.464844 C 92.820312 44.828125 95.722656 42.382812 98.507812 39.816406 C 104.3125 34.464844 109.671875 28.65625 115.382812 23.207031 C 120.480469 18.34375 125.460938 13.367188 130.34375 8.289062 C 131.925781 6.644531 133.769531 5.273438 135.507812 3.792969 C 135.640625 3.679688 135.804688 3.433594 135.988281 3.617188 C 136.171875 3.796875 135.945312 3.976562 135.816406 4.097656 C 135.199219 4.679688 134.574219 5.257812 133.933594 5.816406 C 129.253906 9.886719 124.933594 14.324219 120.710938 18.855469 C 115.492188 24.453125 110.132812 29.90625 104.382812 34.972656 C 100.171875 38.683594 96.25 42.703125 92.125 46.507812 C 91.394531 47.179688 90.652344 47.84375 89.90625 48.503906 C 89.746094 48.648438 89.550781 48.753906 89.382812 48.867188 Z M 96.179688 79.433594 C 99.640625 81.6875 103.070312 83.988281 106.574219 86.167969 C 115.257812 91.570312 123.96875 96.925781 132.285156 102.890625 C 133.386719 103.679688 134.558594 104.375 135.703125 105.109375 C 135.8125 105.179688 135.941406 105.324219 136.085938 105.179688 C 136.21875 105.046875 136.144531 104.90625 136.054688 104.789062 C 135.925781 104.617188 135.804688 104.414062 135.632812 104.292969 C 135.039062 103.875 134.414062 103.5 133.816406 103.085938 C 129.140625 99.851562 124.382812 96.75 119.589844 93.691406 C 114.882812 90.683594 110.363281 87.390625 105.5625 84.523438 C 102.519531 82.703125 99.585938 80.710938 96.492188 78.96875 C 96.148438 78.773438 95.8125 78.523438 95.261719 78.554688 C 95.484375 79.027344 95.855469 79.21875 96.179688 79.433594 Z M 49.25 52.207031 C 49.175781 51.53125 48.738281 51.128906 48.285156 50.808594 C 46.652344 49.652344 45.195312 48.292969 43.648438 47.042969 C 40.699219 44.660156 37.574219 42.507812 34.609375 40.148438 C 29.671875 36.21875 24.847656 32.136719 20.027344 28.058594 C 16.664062 25.214844 13.136719 22.601562 9.488281 20.144531 C 9.152344 19.921875 8.8125 19.6875 8.3125 19.78125 C 21.941406 30.578125 35.570312 41.371094 49.25 52.207031 Z M 135.460938 89.882812 C 133.671875 89.492188 131.96875 88.855469 130.261719 88.226562 C 126.84375 86.972656 123.25 86.21875 119.898438 84.796875 C 113.1875 81.957031 106.347656 79.457031 99.5 76.980469 C 98.257812 76.53125 96.957031 76.234375 95.683594 75.867188 C 95.925781 76.132812 96.199219 76.28125 96.492188 76.398438 C 99.714844 77.683594 102.929688 78.996094 106.171875 80.238281 C 113.378906 82.996094 120.761719 85.269531 127.929688 88.136719 C 130.855469 89.304688 133.867188 90.230469 137.148438 90.808594 C 136.605469 90.246094 136.042969 90.007812 135.460938 89.882812 Z M 28.527344 124.972656 C 28.664062 124.839844 28.8125 124.71875 28.933594 124.570312 C 35.140625 117.03125 41.363281 109.511719 47.203125 101.679688 C 50.105469 97.792969 53.019531 93.902344 56.113281 90.15625 C 56.257812 89.980469 56.554688 89.765625 56.328125 89.542969 C 56.054688 89.265625 55.851562 89.613281 55.683594 89.785156 C 54.835938 90.652344 54.027344 91.558594 53.351562 92.578125 C 52.425781 93.972656 51.507812 95.371094 50.5 96.714844 C 47.199219 101.101562 43.835938 105.4375 40.242188 109.59375 C 36.425781 114.003906 33.292969 118.949219 29.484375 123.371094 C 29.082031 123.839844 28.722656 124.371094 28.542969 124.988281 Z M 5.878906 48.023438 C 8.707031 48.722656 11.546875 49.386719 14.375 50.089844 C 18.546875 51.128906 22.78125 51.859375 26.980469 52.757812 C 31.636719 53.753906 36.125 55.359375 40.6875 56.695312 C 42.339844 57.183594 43.980469 57.710938 45.628906 58.214844 C 45.78125 58.261719 45.988281 58.378906 46.089844 58.191406 C 46.199219 57.980469 45.96875 57.890625 45.832031 57.824219 C 45.441406 57.632812 45.042969 57.4375 44.628906 57.308594 C 40.277344 55.9375 35.875 54.738281 31.460938 53.578125 C 28.53125 52.808594 25.542969 52.273438 22.628906 51.433594 C 17.75 50.023438 12.84375 48.726562 7.847656 47.789062 C 6.878906 47.609375 5.914062 47.34375 4.761719 47.4375 C 5.113281 47.917969 5.523438 47.9375 5.878906 48.023438 Z M 4.261719 85.09375 C 11.601562 82.980469 18.832031 80.476562 26.316406 78.855469 C 30.066406 78.042969 33.699219 76.789062 37.4375 75.914062 C 39.75 75.371094 42.15625 75.273438 44.410156 74.449219 C 44.625 74.371094 44.988281 74.402344 44.921875 74.070312 C 44.835938 73.671875 44.4375 73.757812 44.195312 73.851562 C 42.816406 74.371094 41.355469 74.492188 39.929688 74.777344 C 37.117188 75.339844 34.410156 76.300781 31.621094 76.9375 C 29.539062 77.410156 27.417969 77.707031 25.347656 78.25 C 22.910156 78.886719 20.597656 79.910156 18.132812 80.503906 C 13.367188 81.652344 8.761719 83.371094 4.0625 84.757812 C 3.84375 84.824219 3.589844 84.875 3.394531 85.308594 C 3.757812 85.21875 4.011719 85.164062 4.261719 85.09375 Z M 11.597656 90.9375 C 12.601562 90.570312 13.617188 90.222656 14.589844 89.785156 C 24.300781 85.449219 34.054688 81.214844 44.039062 77.535156 C 44.585938 77.332031 45.132812 77.125 45.675781 76.925781 C 45.835938 76.863281 46.050781 76.8125 46.019531 76.609375 C 45.972656 76.324219 45.707031 76.410156 45.542969 76.449219 C 45.121094 76.542969 44.699219 76.660156 44.285156 76.804688 C 40.75 78.03125 37.378906 79.664062 33.90625 81.046875 C 29.261719 82.894531 24.714844 84.976562 19.96875 86.589844 C 17.03125 87.589844 14.195312 88.890625 11.429688 90.316406 C 11.101562 90.488281 10.71875 90.625 10.582031 91.058594 C 10.980469 91.222656 11.296875 91.046875 11.597656 90.9375 Z M 64.03125 5.992188 C 64.445312 9.878906 64.886719 13.761719 65.300781 17.648438 C 65.59375 20.425781 65.859375 23.203125 66.144531 25.976562 C 66.445312 28.96875 66.761719 31.960938 67.054688 34.957031 C 67.25 36.960938 67.414062 38.96875 67.601562 40.972656 C 67.617188 41.148438 67.542969 41.4375 67.816406 41.429688 C 68.050781 41.421875 68.03125 41.144531 68.039062 40.957031 C 68.050781 40.714844 68.070312 40.46875 68.050781 40.226562 C 67.960938 39.140625 67.851562 38.050781 67.765625 36.964844 C 67.492188 33.429688 67.054688 29.914062 66.628906 26.398438 C 66.257812 23.316406 65.863281 20.234375 65.710938 17.128906 C 65.53125 13.371094 65.398438 9.609375 64.714844 5.894531 C 64.503906 4.738281 64.367188 3.5625 63.929688 2.445312 C 63.734375 3.640625 63.90625 4.816406 64.03125 5.992188 Z M 136.457031 42.886719 C 133.460938 44.085938 130.457031 45.277344 127.46875 46.496094 C 120.972656 49.144531 114.535156 51.921875 107.910156 54.246094 C 103.742188 55.707031 99.472656 56.878906 95.441406 58.722656 C 95.246094 58.8125 94.847656 58.816406 94.976562 59.144531 C 95.082031 59.40625 95.402344 59.226562 95.628906 59.171875 C 95.722656 59.148438 95.816406 59.117188 95.902344 59.078125 C 97.847656 58.175781 99.894531 57.554688 101.914062 56.851562 C 107.140625 55.03125 112.171875 52.710938 117.421875 50.957031 C 123.234375 49.011719 128.925781 46.777344 134.433594 44.089844 C 135.367188 43.632812 136.320312 43.210938 137.425781 42.695312 C 136.925781 42.628906 136.699219 42.789062 136.457031 42.886719 Z M 80.484375 92.125 C 81.117188 93.328125 81.730469 94.539062 82.453125 95.695312 C 84.507812 98.964844 86.539062 102.246094 88.386719 105.640625 C 91.800781 111.90625 95.019531 118.285156 98.855469 124.316406 C 99.09375 124.6875 99.320312 125.066406 99.554688 125.441406 C 99.15625 124.308594 98.621094 123.257812 98.0625 122.21875 C 94.53125 115.625 90.796875 109.144531 87.125 102.632812 C 85.230469 99.269531 83.347656 95.898438 81.367188 92.582031 C 81.121094 92.167969 80.96875 91.640625 80.40625 91.496094 C 80.226562 91.753906 80.386719 91.945312 80.484375 92.125 Z M 26.769531 25.089844 C 23.578125 21.789062 20.449219 18.433594 17.371094 15.023438 C 13.332031 10.554688 8.875 6.480469 4.90625 1.941406 C 4.824219 1.851562 4.734375 1.769531 4.636719 1.695312 C 4.503906 1.59375 4.339844 1.453125 4.179688 1.570312 C 3.949219 1.742188 4.15625 1.917969 4.246094 2.070312 C 4.871094 3.089844 5.648438 3.992188 6.484375 4.84375 C 11.078125 9.523438 15.835938 14.042969 20.289062 18.859375 C 22.464844 21.210938 24.640625 23.570312 27.1875 25.570312 C 27.046875 25.410156 26.917969 25.242188 26.769531 25.089844 Z M 112.871094 109.222656 C 113.84375 110.171875 114.820312 111.121094 115.8125 112.050781 C 119.980469 115.953125 124.109375 119.902344 127.957031 124.125 C 129.714844 126.054688 131.621094 127.800781 133.574219 129.515625 C 133.761719 129.679688 133.925781 129.917969 134.234375 129.90625 C 133.625 128.382812 113.804688 108.949219 112.269531 108.402344 C 112.398438 108.800781 112.648438 109.003906 112.871094 109.222656 Z M 38.246094 101.601562 C 36.714844 102.953125 35.242188 104.363281 33.835938 105.84375 C 31.691406 108.097656 29.554688 110.359375 27.355469 112.554688 C 23.5 116.394531 19.601562 120.191406 15.722656 124.007812 C 15.585938 124.144531 15.445312 124.28125 15.324219 124.429688 C 15.21875 124.5625 15.089844 124.722656 15.269531 124.875 C 15.40625 124.996094 15.546875 124.882812 15.660156 124.800781 C 16.316406 124.339844 16.9375 123.828125 17.496094 123.253906 C 20.824219 119.851562 24.140625 116.433594 27.472656 113.035156 C 31.113281 109.320312 34.761719 105.617188 38.402344 101.90625 C 38.578125 101.726562 38.824219 101.582031 38.863281 101.128906 C 38.585938 101.339844 38.40625 101.460938 38.246094 101.601562 Z M 93.941406 19.476562 C 92.976562 21.214844 92.015625 22.957031 91.0625 24.703125 C 88.675781 29.066406 86.515625 33.546875 84.011719 37.851562 C 82.953125 39.671875 82.109375 41.617188 81.171875 43.507812 C 81.089844 43.671875 80.914062 43.882812 81.117188 44.027344 C 81.351562 44.195312 81.523438 43.964844 81.640625 43.792969 C 81.886719 43.433594 82.121094 43.0625 82.332031 42.679688 C 83.757812 40.113281 84.988281 37.449219 86.402344 34.875 C 88.621094 30.839844 90.628906 26.6875 92.71875 22.578125 C 93.355469 21.328125 93.972656 20.066406 94.597656 18.8125 C 94.203125 18.902344 94.089844 19.207031 93.941406 19.476562 Z M 104.113281 100.234375 C 99.308594 95.671875 94.3125 91.308594 89.5625 86.683594 C 89.40625 86.535156 89.238281 86.390625 89.054688 86.273438 C 88.859375 86.140625 88.605469 85.914062 88.414062 86.152344 C 88.191406 86.414062 88.515625 86.570312 88.683594 86.71875 C 92.839844 90.378906 96.765625 94.285156 100.8125 98.0625 C 103.414062 100.488281 105.878906 103.082031 108.8125 105.125 C 107.347656 103.382812 105.75 101.789062 104.113281 100.234375 Z M 49.300781 128.359375 C 54.039062 120.53125 57.632812 112.136719 61.28125 103.777344 C 60.136719 105.433594 49.183594 127.816406 49.300781 128.359375 Z M 86.644531 123.117188 C 84.070312 115.0625 81.648438 106.960938 79.488281 98.785156 C 78.972656 96.839844 78.367188 94.917969 77.796875 92.988281 C 77.746094 92.816406 77.722656 92.542969 77.46875 92.59375 C 77.230469 92.644531 77.265625 92.898438 77.300781 93.089844 C 77.398438 93.589844 77.484375 94.09375 77.621094 94.582031 C 80.308594 103.996094 83.351562 113.304688 86.113281 122.695312 C 86.269531 123.21875 86.386719 123.769531 86.8125 124.289062 C 86.917969 123.796875 86.753906 123.457031 86.644531 123.117188 Z M 120.300781 78.929688 C 112.601562 76.933594 104.929688 74.832031 97.160156 73.121094 C 96.851562 73.050781 96.539062 73.015625 96.222656 72.984375 C 96.148438 72.980469 96.027344 73.046875 95.992188 73.117188 C 95.917969 73.257812 96.035156 73.335938 96.152344 73.378906 C 96.308594 73.441406 96.472656 73.488281 96.632812 73.542969 C 98.4375 74.128906 100.324219 74.367188 102.15625 74.824219 C 107.96875 76.269531 113.761719 77.796875 119.566406 79.285156 C 120.394531 79.496094 121.226562 79.746094 122.105469 79.6875 C 121.566406 79.246094 120.925781 79.089844 120.300781 78.929688 Z M 114.882812 64.035156 C 117.121094 64.082031 119.34375 63.820312 121.566406 63.625 C 125.972656 63.238281 130.390625 63.28125 134.804688 63.207031 C 135.097656 63.203125 135.390625 63.207031 135.679688 63.179688 C 135.945312 63.148438 136.394531 63.25 136.382812 62.894531 C 136.375 62.578125 135.921875 62.648438 135.648438 62.621094 C 135.335938 62.589844 135.019531 62.597656 134.703125 62.589844 C 128.917969 62.425781 123.15625 62.796875 117.40625 63.371094 C 116.304688 63.480469 115.179688 63.460938 114.035156 63.84375 C 114.351562 64.121094 114.628906 64.027344 114.882812 64.035156 Z M 100.871094 22.230469 C 96.578125 28.347656 92.285156 34.464844 88.007812 40.59375 C 86.953125 42.105469 85.863281 43.597656 85 45.230469 C 84.867188 45.488281 84.636719 45.738281 84.773438 46.148438 C 90.472656 38.230469 95.917969 30.226562 101.050781 22.007812 C 100.992188 22.082031 100.925781 22.152344 100.871094 22.230469 Z M 55.378906 28.410156 C 54.117188 24.945312 52.59375 21.585938 51.183594 18.179688 C 49.386719 13.855469 47.234375 9.6875 45.628906 5.28125 C 45.0625 3.734375 44.429688 2.207031 43.8125 0.679688 C 43.722656 0.453125 43.621094 0.0703125 43.292969 0.1875 C 42.929688 0.320312 43.164062 0.648438 43.253906 0.875 C 44.460938 3.996094 45.570312 7.164062 47.101562 10.148438 C 49.445312 14.707031 51.425781 19.425781 53.335938 24.171875 C 53.96875 25.746094 54.617188 27.308594 55.496094 28.742188 C 55.457031 28.628906 55.417969 28.519531 55.378906 28.410156 Z M 43.847656 32.070312 C 45.828125 34.429688 48.003906 36.625 49.917969 39.046875 C 51.660156 41.257812 53.453125 43.429688 55.238281 45.609375 C 55.421875 45.828125 55.660156 46.28125 55.953125 46.042969 C 56.222656 45.824219 55.839844 45.484375 55.664062 45.257812 C 54.394531 43.632812 53.117188 42.011719 51.824219 40.402344 C 49.6875 37.757812 47.59375 35.082031 45.191406 32.664062 C 44.683594 32.15625 44.21875 31.585938 43.386719 31.289062 C 43.472656 31.695312 43.679688 31.871094 43.847656 32.070312 Z M 68.777344 18.382812 C 68.640625 19.515625 68.769531 20.652344 68.855469 21.785156 C 69.183594 26.042969 69.625 30.296875 69.648438 34.574219 C 69.660156 36.664062 69.667969 38.75 69.925781 40.828125 C 69.960938 41.117188 69.964844 41.410156 70.007812 41.695312 C 70.023438 41.808594 70.074219 41.953125 70.210938 41.964844 C 70.410156 41.980469 70.4375 41.800781 70.449219 41.664062 C 70.472656 41.449219 70.472656 41.226562 70.460938 41.011719 C 70.402344 39.796875 70.28125 38.585938 70.285156 37.371094 C 70.308594 31.753906 69.691406 26.179688 69.195312 20.59375 C 69.128906 19.855469 69.042969 19.117188 68.964844 18.378906 C 68.902344 18.378906 68.839844 18.382812 68.777344 18.382812 Z M 74.898438 114.15625 C 74.832031 114.472656 74.820312 114.785156 74.835938 115.097656 C 74.945312 117.519531 75.085938 119.9375 75.011719 122.363281 C 74.898438 126.121094 74.777344 129.878906 75.339844 133.617188 C 75.382812 133.90625 75.378906 134.207031 75.972656 134.347656 C 75.203125 127.570312 76.109375 120.8125 74.898438 114.15625 Z M 27.414062 71.703125 C 26.496094 71.78125 25.574219 71.84375 24.65625 71.921875 C 21.378906 72.207031 18.097656 72.015625 14.820312 72.101562 C 13.507812 72.132812 12.195312 72.171875 10.886719 72.214844 C 10.667969 72.21875 10.398438 72.230469 10.390625 72.519531 C 10.382812 72.824219 10.660156 72.8125 10.875 72.828125 C 11.261719 72.855469 11.652344 72.894531 12.039062 72.886719 C 16.824219 72.804688 21.609375 72.738281 26.382812 72.332031 C 27.257812 72.257812 28.160156 72.269531 29.167969 71.886719 C 28.476562 71.632812 27.949219 71.65625 27.414062 71.703125 Z M 113.007812 3.6875 C 109.125 9.195312 105.757812 15.039062 101.925781 20.585938 C 106.324219 15.414062 109.738281 9.59375 113.007812 3.6875 Z M 103.492188 64.300781 C 101.5625 64.523438 99.625 64.65625 97.695312 64.851562 C 97.441406 64.878906 96.980469 64.824219 97.015625 65.210938 C 97.046875 65.539062 97.464844 65.390625 97.703125 65.382812 C 98.941406 65.351562 100.179688 65.339844 101.414062 65.234375 C 104.382812 64.980469 107.367188 64.832031 110.304688 64.125 C 108.039062 64.019531 105.765625 64.039062 103.492188 64.300781 Z M 40.476562 38.851562 C 37.695312 35.503906 34.453125 32.585938 31.644531 29.265625 C 31.566406 29.171875 31.488281 29.0625 31.347656 29.117188 C 31.171875 29.191406 31.207031 29.339844 31.242188 29.488281 C 31.359375 29.957031 31.683594 30.289062 31.984375 30.640625 C 34.691406 33.796875 37.871094 36.492188 40.660156 39.570312 C 40.785156 39.710938 40.949219 39.816406 41.25 40.070312 C 41.039062 39.449219 40.734375 39.164062 40.476562 38.851562 Z M 73.921875 94.035156 C 74.007812 95.945312 74.140625 97.855469 74.171875 99.769531 C 74.226562 102.945312 74.085938 106.128906 74.46875 109.292969 C 74.503906 109.570312 74.328125 110.066406 74.753906 110.058594 C 75.054688 110.054688 74.941406 109.570312 74.929688 109.308594 C 74.714844 105.195312 74.945312 101.058594 74.445312 96.957031 C 74.328125 95.976562 74.175781 95.003906 74.039062 94.023438 C 74 94.027344 73.960938 94.03125 73.921875 94.035156 Z M 42.773438 97.546875 C 45.875 94.476562 48.800781 91.234375 51.988281 88.246094 C 52.304688 87.949219 52.582031 87.605469 52.867188 87.273438 C 52.957031 87.167969 53.070312 87.023438 52.941406 86.886719 C 52.769531 86.710938 52.636719 86.871094 52.519531 86.988281 C 52.277344 87.226562 52.046875 87.476562 51.804688 87.714844 C 48.207031 91.28125 44.683594 94.925781 41.308594 98.71875 C 41.886719 98.4375 42.328125 97.988281 42.773438 97.546875 Z M 103.238281 2.277344 C 100.683594 7.058594 98.179688 11.753906 95.671875 16.453125 C 96.710938 15.917969 103.363281 3.363281 103.238281 2.277344 Z M 137.730469 83.367188 C 133.664062 82.054688 129.515625 81.109375 125.273438 80.527344 C 129.375 81.683594 133.488281 82.808594 137.730469 83.367188 Z M 32.851562 20.441406 C 33.765625 21.417969 34.683594 22.382812 35.605469 23.351562 C 37.128906 24.949219 38.582031 26.617188 40.1875 28.132812 C 40.425781 28.351562 40.640625 28.691406 41.234375 28.582031 C 38.523438 25.175781 35.222656 22.527344 32.285156 19.523438 C 32.324219 19.949219 32.609375 20.183594 32.851562 20.441406 Z M 44.09375 42.449219 C 46.15625 45.0625 48.421875 47.480469 50.976562 49.625 C 48.933594 46.988281 46.699219 44.542969 44.09375 42.449219 Z M 91.976562 138.0625 C 92.003906 137.335938 88.625 128.613281 88.128906 128.136719 C 89.1875 131.535156 90.320312 134.902344 91.976562 138.0625 Z M 61.289062 43.257812 C 59.742188 39.503906 58.242188 35.859375 56.738281 32.214844 C 56.46875 33.167969 60.324219 42.375 61.289062 43.257812 Z M 28.542969 124.988281 C 26.441406 126.707031 23.121094 131.066406 23.160156 132.183594 C 25.25 129.921875 26.957031 127.5 28.527344 124.972656 C 28.527344 124.972656 28.542969 124.988281 28.542969 124.988281 Z M 2.316406 95.199219 C 3.925781 94.515625 5.511719 93.785156 7.101562 93.066406 C 7.257812 92.992188 7.542969 92.941406 7.449219 92.691406 C 7.363281 92.464844 7.117188 92.558594 6.933594 92.59375 C 6.835938 92.609375 6.742188 92.628906 6.648438 92.65625 C 4.566406 93.242188 2.75 94.371094 0.90625 95.441406 C 0.78125 95.511719 0.65625 95.589844 0.535156 95.667969 C 1.257812 95.773438 1.777344 95.425781 2.316406 95.199219 Z M 107.148438 137.1875 C 105.515625 134.625 104.117188 131.910156 102.199219 129.53125 C 102.3125 130.730469 106.175781 136.6875 107.148438 137.1875 Z M 65.859375 94.011719 C 65.921875 93.867188 66.027344 93.648438 65.824219 93.558594 C 65.605469 93.457031 65.539062 93.703125 65.476562 93.839844 C 64.292969 96.332031 63.078125 98.8125 62.289062 101.476562 C 63.8125 99.148438 64.765625 96.546875 65.859375 94.011719 Z M 39.710938 70.707031 C 37.058594 70.796875 34.542969 71.023438 32.050781 71.550781 C 33.480469 71.8125 38.78125 71.234375 39.710938 70.707031 Z M 41.703125 70.753906 C 42.507812 70.683594 43.3125 70.613281 44.117188 70.542969 C 44.109375 70.457031 44.101562 70.371094 44.09375 70.285156 C 43.269531 70.101562 42.464844 70.164062 41.675781 70.503906 C 41.683594 70.585938 41.695312 70.671875 41.703125 70.753906 Z M 41.703125 70.753906 " fill-opacity="1" fill-rule="nonzero"/><path fill="#ffffff" d="M 89.382812 48.867188 C 89.019531 48.804688 89.144531 48.582031 89.226562 48.433594 C 89.433594 48.039062 89.785156 47.765625 90.097656 47.464844 C 92.820312 44.828125 95.722656 42.382812 98.507812 39.816406 C 104.3125 34.464844 109.671875 28.65625 115.382812 23.207031 C 120.480469 18.34375 125.460938 13.367188 130.34375 8.289062 C 131.925781 6.644531 133.769531 5.273438 135.507812 3.792969 C 135.640625 3.679688 135.804688 3.433594 135.988281 3.617188 C 136.171875 3.796875 135.945312 3.976562 135.816406 4.097656 C 135.199219 4.679688 134.574219 5.257812 133.933594 5.816406 C 129.253906 9.886719 124.933594 14.324219 120.710938 18.855469 C 115.492188 24.453125 110.132812 29.90625 104.382812 34.972656 C 100.171875 38.683594 96.25 42.703125 92.125 46.507812 C 91.394531 47.179688 90.652344 47.84375 89.90625 48.503906 C 89.746094 48.648438 89.550781 48.753906 89.382812 48.867188 Z M 96.179688 79.433594 C 99.640625 81.6875 103.070312 83.988281 106.574219 86.167969 C 115.257812 91.570312 123.96875 96.925781 132.285156 102.890625 C 133.386719 103.679688 134.558594 104.375 135.703125 105.109375 C 135.8125 105.179688 135.941406 105.324219 136.085938 105.179688 C 136.21875 105.046875 136.144531 104.90625 136.054688 104.789062 C 135.925781 104.617188 135.804688 104.414062 135.632812 104.292969 C 135.039062 103.875 134.414062 103.5 133.816406 103.085938 C 129.140625 99.851562 124.382812 96.75 119.589844 93.691406 C 114.882812 90.683594 110.363281 87.390625 105.5625 84.523438 C 102.519531 82.703125 99.585938 80.710938 96.492188 78.96875 C 96.148438 78.773438 95.8125 78.523438 95.261719 78.554688 C 95.484375 79.027344 95.855469 79.21875 96.179688 79.433594 Z M 49.25 52.207031 C 49.175781 51.53125 48.738281 51.128906 48.285156 50.808594 C 46.652344 49.652344 45.195312 48.292969 43.648438 47.042969 C 40.699219 44.660156 37.574219 42.507812 34.609375 40.148438 C 29.671875 36.21875 24.847656 32.136719 20.027344 28.058594 C 16.664062 25.214844 13.136719 22.601562 9.488281 20.144531 C 9.152344 19.921875 8.8125 19.6875 8.3125 19.78125 C 21.941406 30.578125 35.570312 41.371094 49.25 52.207031 Z M 135.460938 89.882812 C 133.671875 89.492188 131.96875 88.855469 130.261719 88.226562 C 126.84375 86.972656 123.25 86.21875 119.898438 84.796875 C 113.1875 81.957031 106.347656 79.457031 99.5 76.980469 C 98.257812 76.53125 96.957031 76.234375 95.683594 75.867188 C 95.925781 76.132812 96.199219 76.28125 96.492188 76.398438 C 99.714844 77.683594 102.929688 78.996094 106.171875 80.238281 C 113.378906 82.996094 120.761719 85.269531 127.929688 88.136719 C 130.855469 89.304688 133.867188 90.230469 137.148438 90.808594 C 136.605469 90.246094 136.042969 90.007812 135.460938 89.882812 Z M 28.527344 124.972656 C 28.664062 124.839844 28.8125 124.71875 28.933594 124.570312 C 35.140625 117.03125 41.363281 109.511719 47.203125 101.679688 C 50.105469 97.792969 53.019531 93.902344 56.113281 90.15625 C 56.257812 89.980469 56.554688 89.765625 56.328125 89.542969 C 56.054688 89.265625 55.851562 89.613281 55.683594 89.785156 C 54.835938 90.652344 54.027344 91.558594 53.351562 92.578125 C 52.425781 93.972656 51.507812 95.371094 50.5 96.714844 C 47.199219 101.101562 43.835938 105.4375 40.242188 109.59375 C 36.425781 114.003906 33.292969 118.949219 29.484375 123.371094 C 29.082031 123.839844 28.722656 124.371094 28.542969 124.988281 Z M 5.878906 48.023438 C 8.707031 48.722656 11.546875 49.386719 14.375 50.089844 C 18.546875 51.128906 22.78125 51.859375 26.980469 52.757812 C 31.636719 53.753906 36.125 55.359375 40.6875 56.695312 C 42.339844 57.183594 43.980469 57.710938 45.628906 58.214844 C 45.78125 58.261719 45.988281 58.378906 46.089844 58.191406 C 46.199219 57.980469 45.96875 57.890625 45.832031 57.824219 C 45.441406 57.632812 45.042969 57.4375 44.628906 57.308594 C 40.277344 55.9375 35.875 54.738281 31.460938 53.578125 C 28.53125 52.808594 25.542969 52.273438 22.628906 51.433594 C 17.75 50.023438 12.84375 48.726562 7.847656 47.789062 C 6.878906 47.609375 5.914062 47.34375 4.761719 47.4375 C 5.113281 47.917969 5.523438 47.9375 5.878906 48.023438 Z M 4.261719 85.09375 C 11.601562 82.980469 18.832031 80.476562 26.316406 78.855469 C 30.066406 78.042969 33.699219 76.789062 37.4375 75.914062 C 39.75 75.371094 42.15625 75.273438 44.410156 74.449219 C 44.625 74.371094 44.988281 74.402344 44.921875 74.070312 C 44.835938 73.671875 44.4375 73.757812 44.195312 73.851562 C 42.816406 74.371094 41.355469 74.492188 39.929688 74.777344 C 37.117188 75.339844 34.410156 76.300781 31.621094 76.9375 C 29.539062 77.410156 27.417969 77.707031 25.347656 78.25 C 22.910156 78.886719 20.597656 79.910156 18.132812 80.503906 C 13.367188 81.652344 8.761719 83.371094 4.0625 84.757812 C 3.84375 84.824219 3.589844 84.875 3.394531 85.308594 C 3.757812 85.21875 4.011719 85.164062 4.261719 85.09375 Z M 11.597656 90.9375 C 12.601562 90.570312 13.617188 90.222656 14.589844 89.785156 C 24.300781 85.449219 34.054688 81.214844 44.039062 77.535156 C 44.585938 77.332031 45.132812 77.125 45.675781 76.925781 C 45.835938 76.863281 46.050781 76.8125 46.019531 76.609375 C 45.972656 76.324219 45.707031 76.410156 45.542969 76.449219 C 45.121094 76.542969 44.699219 76.660156 44.285156 76.804688 C 40.75 78.03125 37.378906 79.664062 33.90625 81.046875 C 29.261719 82.894531 24.714844 84.976562 19.96875 86.589844 C 17.03125 87.589844 14.195312 88.890625 11.429688 90.316406 C 11.101562 90.488281 10.71875 90.625 10.582031 91.058594 C 10.980469 91.222656 11.296875 91.046875 11.597656 90.9375 Z M 64.03125 5.992188 C 64.445312 9.878906 64.886719 13.761719 65.300781 17.648438 C 65.59375 20.425781 65.859375 23.203125 66.144531 25.976562 C 66.445312 28.96875 66.761719 31.960938 67.054688 34.957031 C 67.25 36.960938 67.414062 38.96875 67.601562 40.972656 C 67.617188 41.148438 67.542969 41.4375 67.816406 41.429688 C 68.050781 41.421875 68.03125 41.144531 68.039062 40.957031 C 68.050781 40.714844 68.070312 40.46875 68.050781 40.226562 C 67.960938 39.140625 67.851562 38.050781 67.765625 36.964844 C 67.492188 33.429688 67.054688 29.914062 66.628906 26.398438 C 66.257812 23.316406 65.863281 20.234375 65.710938 17.128906 C 65.53125 13.371094 65.398438 9.609375 64.714844 5.894531 C 64.503906 4.738281 64.367188 3.5625 63.929688 2.445312 C 63.734375 3.640625 63.90625 4.816406 64.03125 5.992188 Z M 136.457031 42.886719 C 133.460938 44.085938 130.457031 45.277344 127.46875 46.496094 C 120.972656 49.144531 114.535156 51.921875 107.910156 54.246094 C 103.742188 55.707031 99.472656 56.878906 95.441406 58.722656 C 95.246094 58.8125 94.847656 58.816406 94.976562 59.144531 C 95.082031 59.40625 95.402344 59.226562 95.628906 59.171875 C 95.722656 59.148438 95.816406 59.117188 95.902344 59.078125 C 97.847656 58.175781 99.894531 57.554688 101.914062 56.851562 C 107.140625 55.03125 112.171875 52.710938 117.421875 50.957031 C 123.234375 49.011719 128.925781 46.777344 134.433594 44.089844 C 135.367188 43.632812 136.320312 43.210938 137.425781 42.695312 C 136.925781 42.628906 136.699219 42.789062 136.457031 42.886719 Z M 80.484375 92.125 C 81.117188 93.328125 81.730469 94.539062 82.453125 95.695312 C 84.507812 98.964844 86.539062 102.246094 88.386719 105.640625 C 91.800781 111.90625 95.019531 118.285156 98.855469 124.316406 C 99.09375 124.6875 99.320312 125.066406 99.554688 125.441406 C 99.15625 124.308594 98.621094 123.257812 98.0625 122.21875 C 94.53125 115.625 90.796875 109.144531 87.125 102.632812 C 85.230469 99.269531 83.347656 95.898438 81.367188 92.582031 C 81.121094 92.167969 80.96875 91.640625 80.40625 91.496094 C 80.226562 91.753906 80.386719 91.945312 80.484375 92.125 Z M 26.769531 25.089844 C 23.578125 21.789062 20.449219 18.433594 17.371094 15.023438 C 13.332031 10.554688 8.875 6.480469 4.90625 1.941406 C 4.824219 1.851562 4.734375 1.769531 4.636719 1.695312 C 4.503906 1.59375 4.339844 1.453125 4.179688 1.570312 C 3.949219 1.742188 4.15625 1.917969 4.246094 2.070312 C 4.871094 3.089844 5.648438 3.992188 6.484375 4.84375 C 11.078125 9.523438 15.835938 14.042969 20.289062 18.859375 C 22.464844 21.210938 24.640625 23.570312 27.1875 25.570312 C 27.046875 25.410156 26.917969 25.242188 26.769531 25.089844 Z M 112.871094 109.222656 C 113.84375 110.171875 114.820312 111.121094 115.8125 112.050781 C 119.980469 115.953125 124.109375 119.902344 127.957031 124.125 C 129.714844 126.054688 131.621094 127.800781 133.574219 129.515625 C 133.761719 129.679688 133.925781 129.917969 134.234375 129.90625 C 133.625 128.382812 113.804688 108.949219 112.269531 108.402344 C 112.398438 108.800781 112.648438 109.003906 112.871094 109.222656 Z M 38.246094 101.601562 C 36.714844 102.953125 35.242188 104.363281 33.835938 105.84375 C 31.691406 108.097656 29.554688 110.359375 27.355469 112.554688 C 23.5 116.394531 19.601562 120.191406 15.722656 124.007812 C 15.585938 124.144531 15.445312 124.28125 15.324219 124.429688 C 15.21875 124.5625 15.089844 124.722656 15.269531 124.875 C 15.40625 124.996094 15.546875 124.882812 15.660156 124.800781 C 16.316406 124.339844 16.9375 123.828125 17.496094 123.253906 C 20.824219 119.851562 24.140625 116.433594 27.472656 113.035156 C 31.113281 109.320312 34.761719 105.617188 38.402344 101.90625 C 38.578125 101.726562 38.824219 101.582031 38.863281 101.128906 C 38.585938 101.339844 38.40625 101.460938 38.246094 101.601562 Z M 93.941406 19.476562 C 92.976562 21.214844 92.015625 22.957031 91.0625 24.703125 C 88.675781 29.066406 86.515625 33.546875 84.011719 37.851562 C 82.953125 39.671875 82.109375 41.617188 81.171875 43.507812 C 81.089844 43.671875 80.914062 43.882812 81.117188 44.027344 C 81.351562 44.195312 81.523438 43.964844 81.640625 43.792969 C 81.886719 43.433594 82.121094 43.0625 82.332031 42.679688 C 83.757812 40.113281 84.988281 37.449219 86.402344 34.875 C 88.621094 30.839844 90.628906 26.6875 92.71875 22.578125 C 93.355469 21.328125 93.972656 20.066406 94.597656 18.8125 C 94.203125 18.902344 94.089844 19.207031 93.941406 19.476562 Z M 104.113281 100.234375 C 99.308594 95.671875 94.3125 91.308594 89.5625 86.683594 C 89.40625 86.535156 89.238281 86.390625 89.054688 86.273438 C 88.859375 86.140625 88.605469 85.914062 88.414062 86.152344 C 88.191406 86.414062 88.515625 86.570312 88.683594 86.71875 C 92.839844 90.378906 96.765625 94.285156 100.8125 98.0625 C 103.414062 100.488281 105.878906 103.082031 108.8125 105.125 C 107.347656 103.382812 105.75 101.789062 104.113281 100.234375 Z M 49.300781 128.359375 C 54.039062 120.53125 57.632812 112.136719 61.28125 103.777344 C 60.136719 105.433594 49.183594 127.816406 49.300781 128.359375 Z M 86.644531 123.117188 C 84.070312 115.0625 81.648438 106.960938 79.488281 98.785156 C 78.972656 96.839844 78.367188 94.917969 77.796875 92.988281 C 77.746094 92.816406 77.722656 92.542969 77.46875 92.59375 C 77.230469 92.644531 77.265625 92.898438 77.300781 93.089844 C 77.398438 93.589844 77.484375 94.09375 77.621094 94.582031 C 80.308594 103.996094 83.351562 113.304688 86.113281 122.695312 C 86.269531 123.21875 86.386719 123.769531 86.8125 124.289062 C 86.917969 123.796875 86.753906 123.457031 86.644531 123.117188 Z M 120.300781 78.929688 C 112.601562 76.933594 104.929688 74.832031 97.160156 73.121094 C 96.851562 73.050781 96.539062 73.015625 96.222656 72.984375 C 96.148438 72.980469 96.027344 73.046875 95.992188 73.117188 C 95.917969 73.257812 96.035156 73.335938 96.152344 73.378906 C 96.308594 73.441406 96.472656 73.488281 96.632812 73.542969 C 98.4375 74.128906 100.324219 74.367188 102.15625 74.824219 C 107.96875 76.269531 113.761719 77.796875 119.566406 79.285156 C 120.394531 79.496094 121.226562 79.746094 122.105469 79.6875 C 121.566406 79.246094 120.925781 79.089844 120.300781 78.929688 Z M 114.882812 64.035156 C 117.121094 64.082031 119.34375 63.820312 121.566406 63.625 C 125.972656 63.238281 130.390625 63.28125 134.804688 63.207031 C 135.097656 63.203125 135.390625 63.207031 135.679688 63.179688 C 135.945312 63.148438 136.394531 63.25 136.382812 62.894531 C 136.375 62.578125 135.921875 62.648438 135.648438 62.621094 C 135.335938 62.589844 135.019531 62.597656 134.703125 62.589844 C 128.917969 62.425781 123.15625 62.796875 117.40625 63.371094 C 116.304688 63.480469 115.179688 63.460938 114.035156 63.84375 C 114.351562 64.121094 114.628906 64.027344 114.882812 64.035156 Z M 100.871094 22.230469 C 96.578125 28.347656 92.285156 34.464844 88.007812 40.59375 C 86.953125 42.105469 85.863281 43.597656 85 45.230469 C 84.867188 45.488281 84.636719 45.738281 84.773438 46.148438 C 90.472656 38.230469 95.917969 30.226562 101.050781 22.007812 C 100.992188 22.082031 100.925781 22.152344 100.871094 22.230469 Z M 55.378906 28.410156 C 54.117188 24.945312 52.59375 21.585938 51.183594 18.179688 C 49.386719 13.855469 47.234375 9.6875 45.628906 5.28125 C 45.0625 3.734375 44.429688 2.207031 43.8125 0.679688 C 43.722656 0.453125 43.621094 0.0703125 43.292969 0.1875 C 42.929688 0.320312 43.164062 0.648438 43.253906 0.875 C 44.460938 3.996094 45.570312 7.164062 47.101562 10.148438 C 49.445312 14.707031 51.425781 19.425781 53.335938 24.171875 C 53.96875 25.746094 54.617188 27.308594 55.496094 28.742188 C 55.457031 28.628906 55.417969 28.519531 55.378906 28.410156 Z M 43.847656 32.070312 C 45.828125 34.429688 48.003906 36.625 49.917969 39.046875 C 51.660156 41.257812 53.453125 43.429688 55.238281 45.609375 C 55.421875 45.828125 55.660156 46.28125 55.953125 46.042969 C 56.222656 45.824219 55.839844 45.484375 55.664062 45.257812 C 54.394531 43.632812 53.117188 42.011719 51.824219 40.402344 C 49.6875 37.757812 47.59375 35.082031 45.191406 32.664062 C 44.683594 32.15625 44.21875 31.585938 43.386719 31.289062 C 43.472656 31.695312 43.679688 31.871094 43.847656 32.070312 Z M 68.777344 18.382812 C 68.640625 19.515625 68.769531 20.652344 68.855469 21.785156 C 69.183594 26.042969 69.625 30.296875 69.648438 34.574219 C 69.660156 36.664062 69.667969 38.75 69.925781 40.828125 C 69.960938 41.117188 69.964844 41.410156 70.007812 41.695312 C 70.023438 41.808594 70.074219 41.953125 70.210938 41.964844 C 70.410156 41.980469 70.4375 41.800781 70.449219 41.664062 C 70.472656 41.449219 70.472656 41.226562 70.460938 41.011719 C 70.402344 39.796875 70.28125 38.585938 70.285156 37.371094 C 70.308594 31.753906 69.691406 26.179688 69.195312 20.59375 C 69.128906 19.855469 69.042969 19.117188 68.964844 18.378906 C 68.902344 18.378906 68.839844 18.382812 68.777344 18.382812 Z M 74.898438 114.15625 C 74.832031 114.472656 74.820312 114.785156 74.835938 115.097656 C 74.945312 117.519531 75.085938 119.9375 75.011719 122.363281 C 74.898438 126.121094 74.777344 129.878906 75.339844 133.617188 C 75.382812 133.90625 75.378906 134.207031 75.972656 134.347656 C 75.203125 127.570312 76.109375 120.8125 74.898438 114.15625 Z M 27.414062 71.703125 C 26.496094 71.78125 25.574219 71.84375 24.65625 71.921875 C 21.378906 72.207031 18.097656 72.015625 14.820312 72.101562 C 13.507812 72.132812 12.195312 72.171875 10.886719 72.214844 C 10.667969 72.21875 10.398438 72.230469 10.390625 72.519531 C 10.382812 72.824219 10.660156 72.8125 10.875 72.828125 C 11.261719 72.855469 11.652344 72.894531 12.039062 72.886719 C 16.824219 72.804688 21.609375 72.738281 26.382812 72.332031 C 27.257812 72.257812 28.160156 72.269531 29.167969 71.886719 C 28.476562 71.632812 27.949219 71.65625 27.414062 71.703125 Z M 113.007812 3.6875 C 109.125 9.195312 105.757812 15.039062 101.925781 20.585938 C 106.324219 15.414062 109.738281 9.59375 113.007812 3.6875 Z M 103.492188 64.300781 C 101.5625 64.523438 99.625 64.65625 97.695312 64.851562 C 97.441406 64.878906 96.980469 64.824219 97.015625 65.210938 C 97.046875 65.539062 97.464844 65.390625 97.703125 65.382812 C 98.941406 65.351562 100.179688 65.339844 101.414062 65.234375 C 104.382812 64.980469 107.367188 64.832031 110.304688 64.125 C 108.039062 64.019531 105.765625 64.039062 103.492188 64.300781 Z M 40.476562 38.851562 C 37.695312 35.503906 34.453125 32.585938 31.644531 29.265625 C 31.566406 29.171875 31.488281 29.0625 31.347656 29.117188 C 31.171875 29.191406 31.207031 29.339844 31.242188 29.488281 C 31.359375 29.957031 31.683594 30.289062 31.984375 30.640625 C 34.691406 33.796875 37.871094 36.492188 40.660156 39.570312 C 40.785156 39.710938 40.949219 39.816406 41.25 40.070312 C 41.039062 39.449219 40.734375 39.164062 40.476562 38.851562 Z M 73.921875 94.035156 C 74.007812 95.945312 74.140625 97.855469 74.171875 99.769531 C 74.226562 102.945312 74.085938 106.128906 74.46875 109.292969 C 74.503906 109.570312 74.328125 110.066406 74.753906 110.058594 C 75.054688 110.054688 74.941406 109.570312 74.929688 109.308594 C 74.714844 105.195312 74.945312 101.058594 74.445312 96.957031 C 74.328125 95.976562 74.175781 95.003906 74.039062 94.023438 C 74 94.027344 73.960938 94.03125 73.921875 94.035156 Z M 42.773438 97.546875 C 45.875 94.476562 48.800781 91.234375 51.988281 88.246094 C 52.304688 87.949219 52.582031 87.605469 52.867188 87.273438 C 52.957031 87.167969 53.070312 87.023438 52.941406 86.886719 C 52.769531 86.710938 52.636719 86.871094 52.519531 86.988281 C 52.277344 87.226562 52.046875 87.476562 51.804688 87.714844 C 48.207031 91.28125 44.683594 94.925781 41.308594 98.71875 C 41.886719 98.4375 42.328125 97.988281 42.773438 97.546875 Z M 103.238281 2.277344 C 100.683594 7.058594 98.179688 11.753906 95.671875 16.453125 C 96.710938 15.917969 103.363281 3.363281 103.238281 2.277344 Z M 137.730469 83.367188 C 133.664062 82.054688 129.515625 81.109375 125.273438 80.527344 C 129.375 81.683594 133.488281 82.808594 137.730469 83.367188 Z M 32.851562 20.441406 C 33.765625 21.417969 34.683594 22.382812 35.605469 23.351562 C 37.128906 24.949219 38.582031 26.617188 40.1875 28.132812 C 40.425781 28.351562 40.640625 28.691406 41.234375 28.582031 C 38.523438 25.175781 35.222656 22.527344 32.285156 19.523438 C 32.324219 19.949219 32.609375 20.183594 32.851562 20.441406 Z M 44.09375 42.449219 C 46.15625 45.0625 48.421875 47.480469 50.976562 49.625 C 48.933594 46.988281 46.699219 44.542969 44.09375 42.449219 Z M 91.976562 138.0625 C 92.003906 137.335938 88.625 128.613281 88.128906 128.136719 C 89.1875 131.535156 90.320312 134.902344 91.976562 138.0625 Z M 61.289062 43.257812 C 59.742188 39.503906 58.242188 35.859375 56.738281 32.214844 C 56.46875 33.167969 60.324219 42.375 61.289062 43.257812 Z M 28.542969 124.988281 C 26.441406 126.707031 23.121094 131.066406 23.160156 132.183594 C 25.25 129.921875 26.957031 127.5 28.527344 124.972656 C 28.527344 124.972656 28.542969 124.988281 28.542969 124.988281 Z M 2.316406 95.199219 C 3.925781 94.515625 5.511719 93.785156 7.101562 93.066406 C 7.257812 92.992188 7.542969 92.941406 7.449219 92.691406 C 7.363281 92.464844 7.117188 92.558594 6.933594 92.59375 C 6.835938 92.609375 6.742188 92.628906 6.648438 92.65625 C 4.566406 93.242188 2.75 94.371094 0.90625 95.441406 C 0.78125 95.511719 0.65625 95.589844 0.535156 95.667969 C 1.257812 95.773438 1.777344 95.425781 2.316406 95.199219 Z M 107.148438 137.1875 C 105.515625 134.625 104.117188 131.910156 102.199219 129.53125 C 102.3125 130.730469 106.175781 136.6875 107.148438 137.1875 Z M 65.859375 94.011719 C 65.921875 93.867188 66.027344 93.648438 65.824219 93.558594 C 65.605469 93.457031 65.539062 93.703125 65.476562 93.839844 C 64.292969 96.332031 63.078125 98.8125 62.289062 101.476562 C 63.8125 99.148438 64.765625 96.546875 65.859375 94.011719 Z M 39.710938 70.707031 C 37.058594 70.796875 34.542969 71.023438 32.050781 71.550781 C 33.480469 71.8125 38.78125 71.234375 39.710938 70.707031 Z M 41.703125 70.753906 C 42.507812 70.683594 43.3125 70.613281 44.117188 70.542969 C 44.109375 70.457031 44.101562 70.371094 44.09375 70.285156 C 43.269531 70.101562 42.464844 70.164062 41.675781 70.503906 C 41.683594 70.585938 41.695312 70.671875 41.703125 70.753906 Z M 41.703125 70.753906 " fill-opacity="1" fill-rule="nonzero"/><path fill="#ffffff" d="M 89.382812 48.867188 C 89.019531 48.804688 89.144531 48.582031 89.226562 48.433594 C 89.433594 48.039062 89.785156 47.765625 90.097656 47.464844 C 92.820312 44.828125 95.722656 42.382812 98.507812 39.816406 C 104.3125 34.464844 109.671875 28.65625 115.382812 23.207031 C 120.480469 18.34375 125.460938 13.367188 130.34375 8.289062 C 131.925781 6.644531 133.769531 5.273438 135.507812 3.792969 C 135.640625 3.679688 135.804688 3.433594 135.988281 3.617188 C 136.171875 3.796875 135.945312 3.976562 135.816406 4.097656 C 135.199219 4.679688 134.574219 5.257812 133.933594 5.816406 C 129.253906 9.886719 124.933594 14.324219 120.710938 18.855469 C 115.492188 24.453125 110.132812 29.90625 104.382812 34.972656 C 100.171875 38.683594 96.25 42.703125 92.125 46.507812 C 91.394531 47.179688 90.652344 47.84375 89.90625 48.503906 C 89.746094 48.648438 89.550781 48.753906 89.382812 48.867188 Z M 96.179688 79.433594 C 99.640625 81.6875 103.070312 83.988281 106.574219 86.167969 C 115.257812 91.570312 123.96875 96.925781 132.285156 102.890625 C 133.386719 103.679688 134.558594 104.375 135.703125 105.109375 C 135.8125 105.179688 135.941406 105.324219 136.085938 105.179688 C 136.21875 105.046875 136.144531 104.90625 136.054688 104.789062 C 135.925781 104.617188 135.804688 104.414062 135.632812 104.292969 C 135.039062 103.875 134.414062 103.5 133.816406 103.085938 C 129.140625 99.851562 124.382812 96.75 119.589844 93.691406 C 114.882812 90.683594 110.363281 87.390625 105.5625 84.523438 C 102.519531 82.703125 99.585938 80.710938 96.492188 78.96875 C 96.148438 78.773438 95.8125 78.523438 95.261719 78.554688 C 95.484375 79.027344 95.855469 79.21875 96.179688 79.433594 Z M 49.25 52.207031 C 49.175781 51.53125 48.738281 51.128906 48.285156 50.808594 C 46.652344 49.652344 45.195312 48.292969 43.648438 47.042969 C 40.699219 44.660156 37.574219 42.507812 34.609375 40.148438 C 29.671875 36.21875 24.847656 32.136719 20.027344 28.058594 C 16.664062 25.214844 13.136719 22.601562 9.488281 20.144531 C 9.152344 19.921875 8.8125 19.6875 8.3125 19.78125 C 21.941406 30.578125 35.570312 41.371094 49.25 52.207031 Z M 135.460938 89.882812 C 133.671875 89.492188 131.96875 88.855469 130.261719 88.226562 C 126.84375 86.972656 123.25 86.21875 119.898438 84.796875 C 113.1875 81.957031 106.347656 79.457031 99.5 76.980469 C 98.257812 76.53125 96.957031 76.234375 95.683594 75.867188 C 95.925781 76.132812 96.199219 76.28125 96.492188 76.398438 C 99.714844 77.683594 102.929688 78.996094 106.171875 80.238281 C 113.378906 82.996094 120.761719 85.269531 127.929688 88.136719 C 130.855469 89.304688 133.867188 90.230469 137.148438 90.808594 C 136.605469 90.246094 136.042969 90.007812 135.460938 89.882812 Z M 28.527344 124.972656 C 28.664062 124.839844 28.8125 124.71875 28.933594 124.570312 C 35.140625 117.03125 41.363281 109.511719 47.203125 101.679688 C 50.105469 97.792969 53.019531 93.902344 56.113281 90.15625 C 56.257812 89.980469 56.554688 89.765625 56.328125 89.542969 C 56.054688 89.265625 55.851562 89.613281 55.683594 89.785156 C 54.835938 90.652344 54.027344 91.558594 53.351562 92.578125 C 52.425781 93.972656 51.507812 95.371094 50.5 96.714844 C 47.199219 101.101562 43.835938 105.4375 40.242188 109.59375 C 36.425781 114.003906 33.292969 118.949219 29.484375 123.371094 C 29.082031 123.839844 28.722656 124.371094 28.542969 124.988281 Z M 5.878906 48.023438 C 8.707031 48.722656 11.546875 49.386719 14.375 50.089844 C 18.546875 51.128906 22.78125 51.859375 26.980469 52.757812 C 31.636719 53.753906 36.125 55.359375 40.6875 56.695312 C 42.339844 57.183594 43.980469 57.710938 45.628906 58.214844 C 45.78125 58.261719 45.988281 58.378906 46.089844 58.191406 C 46.199219 57.980469 45.96875 57.890625 45.832031 57.824219 C 45.441406 57.632812 45.042969 57.4375 44.628906 57.308594 C 40.277344 55.9375 35.875 54.738281 31.460938 53.578125 C 28.53125 52.808594 25.542969 52.273438 22.628906 51.433594 C 17.75 50.023438 12.84375 48.726562 7.847656 47.789062 C 6.878906 47.609375 5.914062 47.34375 4.761719 47.4375 C 5.113281 47.917969 5.523438 47.9375 5.878906 48.023438 Z M 4.261719 85.09375 C 11.601562 82.980469 18.832031 80.476562 26.316406 78.855469 C 30.066406 78.042969 33.699219 76.789062 37.4375 75.914062 C 39.75 75.371094 42.15625 75.273438 44.410156 74.449219 C 44.625 74.371094 44.988281 74.402344 44.921875 74.070312 C 44.835938 73.671875 44.4375 73.757812 44.195312 73.851562 C 42.816406 74.371094 41.355469 74.492188 39.929688 74.777344 C 37.117188 75.339844 34.410156 76.300781 31.621094 76.9375 C 29.539062 77.410156 27.417969 77.707031 25.347656 78.25 C 22.910156 78.886719 20.597656 79.910156 18.132812 80.503906 C 13.367188 81.652344 8.761719 83.371094 4.0625 84.757812 C 3.84375 84.824219 3.589844 84.875 3.394531 85.308594 C 3.757812 85.21875 4.011719 85.164062 4.261719 85.09375 Z M 11.597656 90.9375 C 12.601562 90.570312 13.617188 90.222656 14.589844 89.785156 C 24.300781 85.449219 34.054688 81.214844 44.039062 77.535156 C 44.585938 77.332031 45.132812 77.125 45.675781 76.925781 C 45.835938 76.863281 46.050781 76.8125 46.019531 76.609375 C 45.972656 76.324219 45.707031 76.410156 45.542969 76.449219 C 45.121094 76.542969 44.699219 76.660156 44.285156 76.804688 C 40.75 78.03125 37.378906 79.664062 33.90625 81.046875 C 29.261719 82.894531 24.714844 84.976562 19.96875 86.589844 C 17.03125 87.589844 14.195312 88.890625 11.429688 90.316406 C 11.101562 90.488281 10.71875 90.625 10.582031 91.058594 C 10.980469 91.222656 11.296875 91.046875 11.597656 90.9375 Z M 64.03125 5.992188 C 64.445312 9.878906 64.886719 13.761719 65.300781 17.648438 C 65.59375 20.425781 65.859375 23.203125 66.144531 25.976562 C 66.445312 28.96875 66.761719 31.960938 67.054688 34.957031 C 67.25 36.960938 67.414062 38.96875 67.601562 40.972656 C 67.617188 41.148438 67.542969 41.4375 67.816406 41.429688 C 68.050781 41.421875 68.03125 41.144531 68.039062 40.957031 C 68.050781 40.714844 68.070312 40.46875 68.050781 40.226562 C 67.960938 39.140625 67.851562 38.050781 67.765625 36.964844 C 67.492188 33.429688 67.054688 29.914062 66.628906 26.398438 C 66.257812 23.316406 65.863281 20.234375 65.710938 17.128906 C 65.53125 13.371094 65.398438 9.609375 64.714844 5.894531 C 64.503906 4.738281 64.367188 3.5625 63.929688 2.445312 C 63.734375 3.640625 63.90625 4.816406 64.03125 5.992188 Z M 136.457031 42.886719 C 133.460938 44.085938 130.457031 45.277344 127.46875 46.496094 C 120.972656 49.144531 114.535156 51.921875 107.910156 54.246094 C 103.742188 55.707031 99.472656 56.878906 95.441406 58.722656 C 95.246094 58.8125 94.847656 58.816406 94.976562 59.144531 C 95.082031 59.40625 95.402344 59.226562 95.628906 59.171875 C 95.722656 59.148438 95.816406 59.117188 95.902344 59.078125 C 97.847656 58.175781 99.894531 57.554688 101.914062 56.851562 C 107.140625 55.03125 112.171875 52.710938 117.421875 50.957031 C 123.234375 49.011719 128.925781 46.777344 134.433594 44.089844 C 135.367188 43.632812 136.320312 43.210938 137.425781 42.695312 C 136.925781 42.628906 136.699219 42.789062 136.457031 42.886719 Z M 80.484375 92.125 C 81.117188 93.328125 81.730469 94.539062 82.453125 95.695312 C 84.507812 98.964844 86.539062 102.246094 88.386719 105.640625 C 91.800781 111.90625 95.019531 118.285156 98.855469 124.316406 C 99.09375 124.6875 99.320312 125.066406 99.554688 125.441406 C 99.15625 124.308594 98.621094 123.257812 98.0625 122.21875 C 94.53125 115.625 90.796875 109.144531 87.125 102.632812 C 85.230469 99.269531 83.347656 95.898438 81.367188 92.582031 C 81.121094 92.167969 80.96875 91.640625 80.40625 91.496094 C 80.226562 91.753906 80.386719 91.945312 80.484375 92.125 Z M 26.769531 25.089844 C 23.578125 21.789062 20.449219 18.433594 17.371094 15.023438 C 13.332031 10.554688 8.875 6.480469 4.90625 1.941406 C 4.824219 1.851562 4.734375 1.769531 4.636719 1.695312 C 4.503906 1.59375 4.339844 1.453125 4.179688 1.570312 C 3.949219 1.742188 4.15625 1.917969 4.246094 2.070312 C 4.871094 3.089844 5.648438 3.992188 6.484375 4.84375 C 11.078125 9.523438 15.835938 14.042969 20.289062 18.859375 C 22.464844 21.210938 24.640625 23.570312 27.1875 25.570312 C 27.046875 25.410156 26.917969 25.242188 26.769531 25.089844 Z M 112.871094 109.222656 C 113.84375 110.171875 114.820312 111.121094 115.8125 112.050781 C 119.980469 115.953125 124.109375 119.902344 127.957031 124.125 C 129.714844 126.054688 131.621094 127.800781 133.574219 129.515625 C 133.761719 129.679688 133.925781 129.917969 134.234375 129.90625 C 133.625 128.382812 113.804688 108.949219 112.269531 108.402344 C 112.398438 108.800781 112.648438 109.003906 112.871094 109.222656 Z M 38.246094 101.601562 C 36.714844 102.953125 35.242188 104.363281 33.835938 105.84375 C 31.691406 108.097656 29.554688 110.359375 27.355469 112.554688 C 23.5 116.394531 19.601562 120.191406 15.722656 124.007812 C 15.585938 124.144531 15.445312 124.28125 15.324219 124.429688 C 15.21875 124.5625 15.089844 124.722656 15.269531 124.875 C 15.40625 124.996094 15.546875 124.882812 15.660156 124.800781 C 16.316406 124.339844 16.9375 123.828125 17.496094 123.253906 C 20.824219 119.851562 24.140625 116.433594 27.472656 113.035156 C 31.113281 109.320312 34.761719 105.617188 38.402344 101.90625 C 38.578125 101.726562 38.824219 101.582031 38.863281 101.128906 C 38.585938 101.339844 38.40625 101.460938 38.246094 101.601562 Z M 93.941406 19.476562 C 92.976562 21.214844 92.015625 22.957031 91.0625 24.703125 C 88.675781 29.066406 86.515625 33.546875 84.011719 37.851562 C 82.953125 39.671875 82.109375 41.617188 81.171875 43.507812 C 81.089844 43.671875 80.914062 43.882812 81.117188 44.027344 C 81.351562 44.195312 81.523438 43.964844 81.640625 43.792969 C 81.886719 43.433594 82.121094 43.0625 82.332031 42.679688 C 83.757812 40.113281 84.988281 37.449219 86.402344 34.875 C 88.621094 30.839844 90.628906 26.6875 92.71875 22.578125 C 93.355469 21.328125 93.972656 20.066406 94.597656 18.8125 C 94.203125 18.902344 94.089844 19.207031 93.941406 19.476562 Z M 104.113281 100.234375 C 99.308594 95.671875 94.3125 91.308594 89.5625 86.683594 C 89.40625 86.535156 89.238281 86.390625 89.054688 86.273438 C 88.859375 86.140625 88.605469 85.914062 88.414062 86.152344 C 88.191406 86.414062 88.515625 86.570312 88.683594 86.71875 C 92.839844 90.378906 96.765625 94.285156 100.8125 98.0625 C 103.414062 100.488281 105.878906 103.082031 108.8125 105.125 C 107.347656 103.382812 105.75 101.789062 104.113281 100.234375 Z M 49.300781 128.359375 C 54.039062 120.53125 57.632812 112.136719 61.28125 103.777344 C 60.136719 105.433594 49.183594 127.816406 49.300781 128.359375 Z M 86.644531 123.117188 C 84.070312 115.0625 81.648438 106.960938 79.488281 98.785156 C 78.972656 96.839844 78.367188 94.917969 77.796875 92.988281 C 77.746094 92.816406 77.722656 92.542969 77.46875 92.59375 C 77.230469 92.644531 77.265625 92.898438 77.300781 93.089844 C 77.398438 93.589844 77.484375 94.09375 77.621094 94.582031 C 80.308594 103.996094 83.351562 113.304688 86.113281 122.695312 C 86.269531 123.21875 86.386719 123.769531 86.8125 124.289062 C 86.917969 123.796875 86.753906 123.457031 86.644531 123.117188 Z M 120.300781 78.929688 C 112.601562 76.933594 104.929688 74.832031 97.160156 73.121094 C 96.851562 73.050781 96.539062 73.015625 96.222656 72.984375 C 96.148438 72.980469 96.027344 73.046875 95.992188 73.117188 C 95.917969 73.257812 96.035156 73.335938 96.152344 73.378906 C 96.308594 73.441406 96.472656 73.488281 96.632812 73.542969 C 98.4375 74.128906 100.324219 74.367188 102.15625 74.824219 C 107.96875 76.269531 113.761719 77.796875 119.566406 79.285156 C 120.394531 79.496094 121.226562 79.746094 122.105469 79.6875 C 121.566406 79.246094 120.925781 79.089844 120.300781 78.929688 Z M 114.882812 64.035156 C 117.121094 64.082031 119.34375 63.820312 121.566406 63.625 C 125.972656 63.238281 130.390625 63.28125 134.804688 63.207031 C 135.097656 63.203125 135.390625 63.207031 135.679688 63.179688 C 135.945312 63.148438 136.394531 63.25 136.382812 62.894531 C 136.375 62.578125 135.921875 62.648438 135.648438 62.621094 C 135.335938 62.589844 135.019531 62.597656 134.703125 62.589844 C 128.917969 62.425781 123.15625 62.796875 117.40625 63.371094 C 116.304688 63.480469 115.179688 63.460938 114.035156 63.84375 C 114.351562 64.121094 114.628906 64.027344 114.882812 64.035156 Z M 100.871094 22.230469 C 96.578125 28.347656 92.285156 34.464844 88.007812 40.59375 C 86.953125 42.105469 85.863281 43.597656 85 45.230469 C 84.867188 45.488281 84.636719 45.738281 84.773438 46.148438 C 90.472656 38.230469 95.917969 30.226562 101.050781 22.007812 C 100.992188 22.082031 100.925781 22.152344 100.871094 22.230469 Z M 55.378906 28.410156 C 54.117188 24.945312 52.59375 21.585938 51.183594 18.179688 C 49.386719 13.855469 47.234375 9.6875 45.628906 5.28125 C 45.0625 3.734375 44.429688 2.207031 43.8125 0.679688 C 43.722656 0.453125 43.621094 0.0703125 43.292969 0.1875 C 42.929688 0.320312 43.164062 0.648438 43.253906 0.875 C 44.460938 3.996094 45.570312 7.164062 47.101562 10.148438 C 49.445312 14.707031 51.425781 19.425781 53.335938 24.171875 C 53.96875 25.746094 54.617188 27.308594 55.496094 28.742188 C 55.457031 28.628906 55.417969 28.519531 55.378906 28.410156 Z M 43.847656 32.070312 C 45.828125 34.429688 48.003906 36.625 49.917969 39.046875 C 51.660156 41.257812 53.453125 43.429688 55.238281 45.609375 C 55.421875 45.828125 55.660156 46.28125 55.953125 46.042969 C 56.222656 45.824219 55.839844 45.484375 55.664062 45.257812 C 54.394531 43.632812 53.117188 42.011719 51.824219 40.402344 C 49.6875 37.757812 47.59375 35.082031 45.191406 32.664062 C 44.683594 32.15625 44.21875 31.585938 43.386719 31.289062 C 43.472656 31.695312 43.679688 31.871094 43.847656 32.070312 Z M 68.777344 18.382812 C 68.640625 19.515625 68.769531 20.652344 68.855469 21.785156 C 69.183594 26.042969 69.625 30.296875 69.648438 34.574219 C 69.660156 36.664062 69.667969 38.75 69.925781 40.828125 C 69.960938 41.117188 69.964844 41.410156 70.007812 41.695312 C 70.023438 41.808594 70.074219 41.953125 70.210938 41.964844 C 70.410156 41.980469 70.4375 41.800781 70.449219 41.664062 C 70.472656 41.449219 70.472656 41.226562 70.460938 41.011719 C 70.402344 39.796875 70.28125 38.585938 70.285156 37.371094 C 70.308594 31.753906 69.691406 26.179688 69.195312 20.59375 C 69.128906 19.855469 69.042969 19.117188 68.964844 18.378906 C 68.902344 18.378906 68.839844 18.382812 68.777344 18.382812 Z M 74.898438 114.15625 C 74.832031 114.472656 74.820312 114.785156 74.835938 115.097656 C 74.945312 117.519531 75.085938 119.9375 75.011719 122.363281 C 74.898438 126.121094 74.777344 129.878906 75.339844 133.617188 C 75.382812 133.90625 75.378906 134.207031 75.972656 134.347656 C 75.203125 127.570312 76.109375 120.8125 74.898438 114.15625 Z M 27.414062 71.703125 C 26.496094 71.78125 25.574219 71.84375 24.65625 71.921875 C 21.378906 72.207031 18.097656 72.015625 14.820312 72.101562 C 13.507812 72.132812 12.195312 72.171875 10.886719 72.214844 C 10.667969 72.21875 10.398438 72.230469 10.390625 72.519531 C 10.382812 72.824219 10.660156 72.8125 10.875 72.828125 C 11.261719 72.855469 11.652344 72.894531 12.039062 72.886719 C 16.824219 72.804688 21.609375 72.738281 26.382812 72.332031 C 27.257812 72.257812 28.160156 72.269531 29.167969 71.886719 C 28.476562 71.632812 27.949219 71.65625 27.414062 71.703125 Z M 113.007812 3.6875 C 109.125 9.195312 105.757812 15.039062 101.925781 20.585938 C 106.324219 15.414062 109.738281 9.59375 113.007812 3.6875 Z M 103.492188 64.300781 C 101.5625 64.523438 99.625 64.65625 97.695312 64.851562 C 97.441406 64.878906 96.980469 64.824219 97.015625 65.210938 C 97.046875 65.539062 97.464844 65.390625 97.703125 65.382812 C 98.941406 65.351562 100.179688 65.339844 101.414062 65.234375 C 104.382812 64.980469 107.367188 64.832031 110.304688 64.125 C 108.039062 64.019531 105.765625 64.039062 103.492188 64.300781 Z M 40.476562 38.851562 C 37.695312 35.503906 34.453125 32.585938 31.644531 29.265625 C 31.566406 29.171875 31.488281 29.0625 31.347656 29.117188 C 31.171875 29.191406 31.207031 29.339844 31.242188 29.488281 C 31.359375 29.957031 31.683594 30.289062 31.984375 30.640625 C 34.691406 33.796875 37.871094 36.492188 40.660156 39.570312 C 40.785156 39.710938 40.949219 39.816406 41.25 40.070312 C 41.039062 39.449219 40.734375 39.164062 40.476562 38.851562 Z M 73.921875 94.035156 C 74.007812 95.945312 74.140625 97.855469 74.171875 99.769531 C 74.226562 102.945312 74.085938 106.128906 74.46875 109.292969 C 74.503906 109.570312 74.328125 110.066406 74.753906 110.058594 C 75.054688 110.054688 74.941406 109.570312 74.929688 109.308594 C 74.714844 105.195312 74.945312 101.058594 74.445312 96.957031 C 74.328125 95.976562 74.175781 95.003906 74.039062 94.023438 C 74 94.027344 73.960938 94.03125 73.921875 94.035156 Z M 42.773438 97.546875 C 45.875 94.476562 48.800781 91.234375 51.988281 88.246094 C 52.304688 87.949219 52.582031 87.605469 52.867188 87.273438 C 52.957031 87.167969 53.070312 87.023438 52.941406 86.886719 C 52.769531 86.710938 52.636719 86.871094 52.519531 86.988281 C 52.277344 87.226562 52.046875 87.476562 51.804688 87.714844 C 48.207031 91.28125 44.683594 94.925781 41.308594 98.71875 C 41.886719 98.4375 42.328125 97.988281 42.773438 97.546875 Z M 103.238281 2.277344 C 100.683594 7.058594 98.179688 11.753906 95.671875 16.453125 C 96.710938 15.917969 103.363281 3.363281 103.238281 2.277344 Z M 137.730469 83.367188 C 133.664062 82.054688 129.515625 81.109375 125.273438 80.527344 C 129.375 81.683594 133.488281 82.808594 137.730469 83.367188 Z M 32.851562 20.441406 C 33.765625 21.417969 34.683594 22.382812 35.605469 23.351562 C 37.128906 24.949219 38.582031 26.617188 40.1875 28.132812 C 40.425781 28.351562 40.640625 28.691406 41.234375 28.582031 C 38.523438 25.175781 35.222656 22.527344 32.285156 19.523438 C 32.324219 19.949219 32.609375 20.183594 32.851562 20.441406 Z M 44.09375 42.449219 C 46.15625 45.0625 48.421875 47.480469 50.976562 49.625 C 48.933594 46.988281 46.699219 44.542969 44.09375 42.449219 Z M 91.976562 138.0625 C 92.003906 137.335938 88.625 128.613281 88.128906 128.136719 C 89.1875 131.535156 90.320312 134.902344 91.976562 138.0625 Z M 61.289062 43.257812 C 59.742188 39.503906 58.242188 35.859375 56.738281 32.214844 C 56.46875 33.167969 60.324219 42.375 61.289062 43.257812 Z M 28.542969 124.988281 C 26.441406 126.707031 23.121094 131.066406 23.160156 132.183594 C 25.25 129.921875 26.957031 127.5 28.527344 124.972656 C 28.527344 124.972656 28.542969 124.988281 28.542969 124.988281 Z M 2.316406 95.199219 C 3.925781 94.515625 5.511719 93.785156 7.101562 93.066406 C 7.257812 92.992188 7.542969 92.941406 7.449219 92.691406 C 7.363281 92.464844 7.117188 92.558594 6.933594 92.59375 C 6.835938 92.609375 6.742188 92.628906 6.648438 92.65625 C 4.566406 93.242188 2.75 94.371094 0.90625 95.441406 C 0.78125 95.511719 0.65625 95.589844 0.535156 95.667969 C 1.257812 95.773438 1.777344 95.425781 2.316406 95.199219 Z M 107.148438 137.1875 C 105.515625 134.625 104.117188 131.910156 102.199219 129.53125 C 102.3125 130.730469 106.175781 136.6875 107.148438 137.1875 Z M 65.859375 94.011719 C 65.921875 93.867188 66.027344 93.648438 65.824219 93.558594 C 65.605469 93.457031 65.539062 93.703125 65.476562 93.839844 C 64.292969 96.332031 63.078125 98.8125 62.289062 101.476562 C 63.8125 99.148438 64.765625 96.546875 65.859375 94.011719 Z M 39.710938 70.707031 C 37.058594 70.796875 34.542969 71.023438 32.050781 71.550781 C 33.480469 71.8125 38.78125 71.234375 39.710938 70.707031 Z M 41.703125 70.753906 C 42.507812 70.683594 43.3125 70.613281 44.117188 70.542969 C 44.109375 70.457031 44.101562 70.371094 44.09375 70.285156 C 43.269531 70.101562 42.464844 70.164062 41.675781 70.503906 C 41.683594 70.585938 41.695312 70.671875 41.703125 70.753906 Z M 41.703125 70.753906 " fill-opacity="1" fill-rule="nonzero"/><path fill="#ffffff" d="M 89.382812 48.867188 C 89.019531 48.804688 89.144531 48.582031 89.226562 48.433594 C 89.433594 48.039062 89.785156 47.765625 90.097656 47.464844 C 92.820312 44.828125 95.722656 42.382812 98.507812 39.816406 C 104.3125 34.464844 109.671875 28.65625 115.382812 23.207031 C 120.480469 18.34375 125.460938 13.367188 130.34375 8.289062 C 131.925781 6.644531 133.769531 5.273438 135.507812 3.792969 C 135.640625 3.679688 135.804688 3.433594 135.988281 3.617188 C 136.171875 3.796875 135.945312 3.976562 135.816406 4.097656 C 135.199219 4.679688 134.574219 5.257812 133.933594 5.816406 C 129.253906 9.886719 124.933594 14.324219 120.710938 18.855469 C 115.492188 24.453125 110.132812 29.90625 104.382812 34.972656 C 100.171875 38.683594 96.25 42.703125 92.125 46.507812 C 91.394531 47.179688 90.652344 47.84375 89.90625 48.503906 C 89.746094 48.648438 89.550781 48.753906 89.382812 48.867188 Z M 96.179688 79.433594 C 99.640625 81.6875 103.070312 83.988281 106.574219 86.167969 C 115.257812 91.570312 123.96875 96.925781 132.285156 102.890625 C 133.386719 103.679688 134.558594 104.375 135.703125 105.109375 C 135.8125 105.179688 135.941406 105.324219 136.085938 105.179688 C 136.21875 105.046875 136.144531 104.90625 136.054688 104.789062 C 135.925781 104.617188 135.804688 104.414062 135.632812 104.292969 C 135.039062 103.875 134.414062 103.5 133.816406 103.085938 C 129.140625 99.851562 124.382812 96.75 119.589844 93.691406 C 114.882812 90.683594 110.363281 87.390625 105.5625 84.523438 C 102.519531 82.703125 99.585938 80.710938 96.492188 78.96875 C 96.148438 78.773438 95.8125 78.523438 95.261719 78.554688 C 95.484375 79.027344 95.855469 79.21875 96.179688 79.433594 Z M 49.25 52.207031 C 49.175781 51.53125 48.738281 51.128906 48.285156 50.808594 C 46.652344 49.652344 45.195312 48.292969 43.648438 47.042969 C 40.699219 44.660156 37.574219 42.507812 34.609375 40.148438 C 29.671875 36.21875 24.847656 32.136719 20.027344 28.058594 C 16.664062 25.214844 13.136719 22.601562 9.488281 20.144531 C 9.152344 19.921875 8.8125 19.6875 8.3125 19.78125 C 21.941406 30.578125 35.570312 41.371094 49.25 52.207031 Z M 135.460938 89.882812 C 133.671875 89.492188 131.96875 88.855469 130.261719 88.226562 C 126.84375 86.972656 123.25 86.21875 119.898438 84.796875 C 113.1875 81.957031 106.347656 79.457031 99.5 76.980469 C 98.257812 76.53125 96.957031 76.234375 95.683594 75.867188 C 95.925781 76.132812 96.199219 76.28125 96.492188 76.398438 C 99.714844 77.683594 102.929688 78.996094 106.171875 80.238281 C 113.378906 82.996094 120.761719 85.269531 127.929688 88.136719 C 130.855469 89.304688 133.867188 90.230469 137.148438 90.808594 C 136.605469 90.246094 136.042969 90.007812 135.460938 89.882812 Z M 28.527344 124.972656 C 28.664062 124.839844 28.8125 124.71875 28.933594 124.570312 C 35.140625 117.03125 41.363281 109.511719 47.203125 101.679688 C 50.105469 97.792969 53.019531 93.902344 56.113281 90.15625 C 56.257812 89.980469 56.554688 89.765625 56.328125 89.542969 C 56.054688 89.265625 55.851562 89.613281 55.683594 89.785156 C 54.835938 90.652344 54.027344 91.558594 53.351562 92.578125 C 52.425781 93.972656 51.507812 95.371094 50.5 96.714844 C 47.199219 101.101562 43.835938 105.4375 40.242188 109.59375 C 36.425781 114.003906 33.292969 118.949219 29.484375 123.371094 C 29.082031 123.839844 28.722656 124.371094 28.542969 124.988281 Z M 5.878906 48.023438 C 8.707031 48.722656 11.546875 49.386719 14.375 50.089844 C 18.546875 51.128906 22.78125 51.859375 26.980469 52.757812 C 31.636719 53.753906 36.125 55.359375 40.6875 56.695312 C 42.339844 57.183594 43.980469 57.710938 45.628906 58.214844 C 45.78125 58.261719 45.988281 58.378906 46.089844 58.191406 C 46.199219 57.980469 45.96875 57.890625 45.832031 57.824219 C 45.441406 57.632812 45.042969 57.4375 44.628906 57.308594 C 40.277344 55.9375 35.875 54.738281 31.460938 53.578125 C 28.53125 52.808594 25.542969 52.273438 22.628906 51.433594 C 17.75 50.023438 12.84375 48.726562 7.847656 47.789062 C 6.878906 47.609375 5.914062 47.34375 4.761719 47.4375 C 5.113281 47.917969 5.523438 47.9375 5.878906 48.023438 Z M 4.261719 85.09375 C 11.601562 82.980469 18.832031 80.476562 26.316406 78.855469 C 30.066406 78.042969 33.699219 76.789062 37.4375 75.914062 C 39.75 75.371094 42.15625 75.273438 44.410156 74.449219 C 44.625 74.371094 44.988281 74.402344 44.921875 74.070312 C 44.835938 73.671875 44.4375 73.757812 44.195312 73.851562 C 42.816406 74.371094 41.355469 74.492188 39.929688 74.777344 C 37.117188 75.339844 34.410156 76.300781 31.621094 76.9375 C 29.539062 77.410156 27.417969 77.707031 25.347656 78.25 C 22.910156 78.886719 20.597656 79.910156 18.132812 80.503906 C 13.367188 81.652344 8.761719 83.371094 4.0625 84.757812 C 3.84375 84.824219 3.589844 84.875 3.394531 85.308594 C 3.757812 85.21875 4.011719 85.164062 4.261719 85.09375 Z M 11.597656 90.9375 C 12.601562 90.570312 13.617188 90.222656 14.589844 89.785156 C 24.300781 85.449219 34.054688 81.214844 44.039062 77.535156 C 44.585938 77.332031 45.132812 77.125 45.675781 76.925781 C 45.835938 76.863281 46.050781 76.8125 46.019531 76.609375 C 45.972656 76.324219 45.707031 76.410156 45.542969 76.449219 C 45.121094 76.542969 44.699219 76.660156 44.285156 76.804688 C 40.75 78.03125 37.378906 79.664062 33.90625 81.046875 C 29.261719 82.894531 24.714844 84.976562 19.96875 86.589844 C 17.03125 87.589844 14.195312 88.890625 11.429688 90.316406 C 11.101562 90.488281 10.71875 90.625 10.582031 91.058594 C 10.980469 91.222656 11.296875 91.046875 11.597656 90.9375 Z M 64.03125 5.992188 C 64.445312 9.878906 64.886719 13.761719 65.300781 17.648438 C 65.59375 20.425781 65.859375 23.203125 66.144531 25.976562 C 66.445312 28.96875 66.761719 31.960938 67.054688 34.957031 C 67.25 36.960938 67.414062 38.96875 67.601562 40.972656 C 67.617188 41.148438 67.542969 41.4375 67.816406 41.429688 C 68.050781 41.421875 68.03125 41.144531 68.039062 40.957031 C 68.050781 40.714844 68.070312 40.46875 68.050781 40.226562 C 67.960938 39.140625 67.851562 38.050781 67.765625 36.964844 C 67.492188 33.429688 67.054688 29.914062 66.628906 26.398438 C 66.257812 23.316406 65.863281 20.234375 65.710938 17.128906 C 65.53125 13.371094 65.398438 9.609375 64.714844 5.894531 C 64.503906 4.738281 64.367188 3.5625 63.929688 2.445312 C 63.734375 3.640625 63.90625 4.816406 64.03125 5.992188 Z M 136.457031 42.886719 C 133.460938 44.085938 130.457031 45.277344 127.46875 46.496094 C 120.972656 49.144531 114.535156 51.921875 107.910156 54.246094 C 103.742188 55.707031 99.472656 56.878906 95.441406 58.722656 C 95.246094 58.8125 94.847656 58.816406 94.976562 59.144531 C 95.082031 59.40625 95.402344 59.226562 95.628906 59.171875 C 95.722656 59.148438 95.816406 59.117188 95.902344 59.078125 C 97.847656 58.175781 99.894531 57.554688 101.914062 56.851562 C 107.140625 55.03125 112.171875 52.710938 117.421875 50.957031 C 123.234375 49.011719 128.925781 46.777344 134.433594 44.089844 C 135.367188 43.632812 136.320312 43.210938 137.425781 42.695312 C 136.925781 42.628906 136.699219 42.789062 136.457031 42.886719 Z M 80.484375 92.125 C 81.117188 93.328125 81.730469 94.539062 82.453125 95.695312 C 84.507812 98.964844 86.539062 102.246094 88.386719 105.640625 C 91.800781 111.90625 95.019531 118.285156 98.855469 124.316406 C 99.09375 124.6875 99.320312 125.066406 99.554688 125.441406 C 99.15625 124.308594 98.621094 123.257812 98.0625 122.21875 C 94.53125 115.625 90.796875 109.144531 87.125 102.632812 C 85.230469 99.269531 83.347656 95.898438 81.367188 92.582031 C 81.121094 92.167969 80.96875 91.640625 80.40625 91.496094 C 80.226562 91.753906 80.386719 91.945312 80.484375 92.125 Z M 26.769531 25.089844 C 23.578125 21.789062 20.449219 18.433594 17.371094 15.023438 C 13.332031 10.554688 8.875 6.480469 4.90625 1.941406 C 4.824219 1.851562 4.734375 1.769531 4.636719 1.695312 C 4.503906 1.59375 4.339844 1.453125 4.179688 1.570312 C 3.949219 1.742188 4.15625 1.917969 4.246094 2.070312 C 4.871094 3.089844 5.648438 3.992188 6.484375 4.84375 C 11.078125 9.523438 15.835938 14.042969 20.289062 18.859375 C 22.464844 21.210938 24.640625 23.570312 27.1875 25.570312 C 27.046875 25.410156 26.917969 25.242188 26.769531 25.089844 Z M 112.871094 109.222656 C 113.84375 110.171875 114.820312 111.121094 115.8125 112.050781 C 119.980469 115.953125 124.109375 119.902344 127.957031 124.125 C 129.714844 126.054688 131.621094 127.800781 133.574219 129.515625 C 133.761719 129.679688 133.925781 129.917969 134.234375 129.90625 C 133.625 128.382812 113.804688 108.949219 112.269531 108.402344 C 112.398438 108.800781 112.648438 109.003906 112.871094 109.222656 Z M 38.246094 101.601562 C 36.714844 102.953125 35.242188 104.363281 33.835938 105.84375 C 31.691406 108.097656 29.554688 110.359375 27.355469 112.554688 C 23.5 116.394531 19.601562 120.191406 15.722656 124.007812 C 15.585938 124.144531 15.445312 124.28125 15.324219 124.429688 C 15.21875 124.5625 15.089844 124.722656 15.269531 124.875 C 15.40625 124.996094 15.546875 124.882812 15.660156 124.800781 C 16.316406 124.339844 16.9375 123.828125 17.496094 123.253906 C 20.824219 119.851562 24.140625 116.433594 27.472656 113.035156 C 31.113281 109.320312 34.761719 105.617188 38.402344 101.90625 C 38.578125 101.726562 38.824219 101.582031 38.863281 101.128906 C 38.585938 101.339844 38.40625 101.460938 38.246094 101.601562 Z M 93.941406 19.476562 C 92.976562 21.214844 92.015625 22.957031 91.0625 24.703125 C 88.675781 29.066406 86.515625 33.546875 84.011719 37.851562 C 82.953125 39.671875 82.109375 41.617188 81.171875 43.507812 C 81.089844 43.671875 80.914062 43.882812 81.117188 44.027344 C 81.351562 44.195312 81.523438 43.964844 81.640625 43.792969 C 81.886719 43.433594 82.121094 43.0625 82.332031 42.679688 C 83.757812 40.113281 84.988281 37.449219 86.402344 34.875 C 88.621094 30.839844 90.628906 26.6875 92.71875 22.578125 C 93.355469 21.328125 93.972656 20.066406 94.597656 18.8125 C 94.203125 18.902344 94.089844 19.207031 93.941406 19.476562 Z M 104.113281 100.234375 C 99.308594 95.671875 94.3125 91.308594 89.5625 86.683594 C 89.40625 86.535156 89.238281 86.390625 89.054688 86.273438 C 88.859375 86.140625 88.605469 85.914062 88.414062 86.152344 C 88.191406 86.414062 88.515625 86.570312 88.683594 86.71875 C 92.839844 90.378906 96.765625 94.285156 100.8125 98.0625 C 103.414062 100.488281 105.878906 103.082031 108.8125 105.125 C 107.347656 103.382812 105.75 101.789062 104.113281 100.234375 Z M 49.300781 128.359375 C 54.039062 120.53125 57.632812 112.136719 61.28125 103.777344 C 60.136719 105.433594 49.183594 127.816406 49.300781 128.359375 Z M 86.644531 123.117188 C 84.070312 115.0625 81.648438 106.960938 79.488281 98.785156 C 78.972656 96.839844 78.367188 94.917969 77.796875 92.988281 C 77.746094 92.816406 77.722656 92.542969 77.46875 92.59375 C 77.230469 92.644531 77.265625 92.898438 77.300781 93.089844 C 77.398438 93.589844 77.484375 94.09375 77.621094 94.582031 C 80.308594 103.996094 83.351562 113.304688 86.113281 122.695312 C 86.269531 123.21875 86.386719 123.769531 86.8125 124.289062 C 86.917969 123.796875 86.753906 123.457031 86.644531 123.117188 Z M 120.300781 78.929688 C 112.601562 76.933594 104.929688 74.832031 97.160156 73.121094 C 96.851562 73.050781 96.539062 73.015625 96.222656 72.984375 C 96.148438 72.980469 96.027344 73.046875 95.992188 73.117188 C 95.917969 73.257812 96.035156 73.335938 96.152344 73.378906 C 96.308594 73.441406 96.472656 73.488281 96.632812 73.542969 C 98.4375 74.128906 100.324219 74.367188 102.15625 74.824219 C 107.96875 76.269531 113.761719 77.796875 119.566406 79.285156 C 120.394531 79.496094 121.226562 79.746094 122.105469 79.6875 C 121.566406 79.246094 120.925781 79.089844 120.300781 78.929688 Z M 114.882812 64.035156 C 117.121094 64.082031 119.34375 63.820312 121.566406 63.625 C 125.972656 63.238281 130.390625 63.28125 134.804688 63.207031 C 135.097656 63.203125 135.390625 63.207031 135.679688 63.179688 C 135.945312 63.148438 136.394531 63.25 136.382812 62.894531 C 136.375 62.578125 135.921875 62.648438 135.648438 62.621094 C 135.335938 62.589844 135.019531 62.597656 134.703125 62.589844 C 128.917969 62.425781 123.15625 62.796875 117.40625 63.371094 C 116.304688 63.480469 115.179688 63.460938 114.035156 63.84375 C 114.351562 64.121094 114.628906 64.027344 114.882812 64.035156 Z M 100.871094 22.230469 C 96.578125 28.347656 92.285156 34.464844 88.007812 40.59375 C 86.953125 42.105469 85.863281 43.597656 85 45.230469 C 84.867188 45.488281 84.636719 45.738281 84.773438 46.148438 C 90.472656 38.230469 95.917969 30.226562 101.050781 22.007812 C 100.992188 22.082031 100.925781 22.152344 100.871094 22.230469 Z M 55.378906 28.410156 C 54.117188 24.945312 52.59375 21.585938 51.183594 18.179688 C 49.386719 13.855469 47.234375 9.6875 45.628906 5.28125 C 45.0625 3.734375 44.429688 2.207031 43.8125 0.679688 C 43.722656 0.453125 43.621094 0.0703125 43.292969 0.1875 C 42.929688 0.320312 43.164062 0.648438 43.253906 0.875 C 44.460938 3.996094 45.570312 7.164062 47.101562 10.148438 C 49.445312 14.707031 51.425781 19.425781 53.335938 24.171875 C 53.96875 25.746094 54.617188 27.308594 55.496094 28.742188 C 55.457031 28.628906 55.417969 28.519531 55.378906 28.410156 Z M 43.847656 32.070312 C 45.828125 34.429688 48.003906 36.625 49.917969 39.046875 C 51.660156 41.257812 53.453125 43.429688 55.238281 45.609375 C 55.421875 45.828125 55.660156 46.28125 55.953125 46.042969 C 56.222656 45.824219 55.839844 45.484375 55.664062 45.257812 C 54.394531 43.632812 53.117188 42.011719 51.824219 40.402344 C 49.6875 37.757812 47.59375 35.082031 45.191406 32.664062 C 44.683594 32.15625 44.21875 31.585938 43.386719 31.289062 C 43.472656 31.695312 43.679688 31.871094 43.847656 32.070312 Z M 68.777344 18.382812 C 68.640625 19.515625 68.769531 20.652344 68.855469 21.785156 C 69.183594 26.042969 69.625 30.296875 69.648438 34.574219 C 69.660156 36.664062 69.667969 38.75 69.925781 40.828125 C 69.960938 41.117188 69.964844 41.410156 70.007812 41.695312 C 70.023438 41.808594 70.074219 41.953125 70.210938 41.964844 C 70.410156 41.980469 70.4375 41.800781 70.449219 41.664062 C 70.472656 41.449219 70.472656 41.226562 70.460938 41.011719 C 70.402344 39.796875 70.28125 38.585938 70.285156 37.371094 C 70.308594 31.753906 69.691406 26.179688 69.195312 20.59375 C 69.128906 19.855469 69.042969 19.117188 68.964844 18.378906 C 68.902344 18.378906 68.839844 18.382812 68.777344 18.382812 Z M 74.898438 114.15625 C 74.832031 114.472656 74.820312 114.785156 74.835938 115.097656 C 74.945312 117.519531 75.085938 119.9375 75.011719 122.363281 C 74.898438 126.121094 74.777344 129.878906 75.339844 133.617188 C 75.382812 133.90625 75.378906 134.207031 75.972656 134.347656 C 75.203125 127.570312 76.109375 120.8125 74.898438 114.15625 Z M 27.414062 71.703125 C 26.496094 71.78125 25.574219 71.84375 24.65625 71.921875 C 21.378906 72.207031 18.097656 72.015625 14.820312 72.101562 C 13.507812 72.132812 12.195312 72.171875 10.886719 72.214844 C 10.667969 72.21875 10.398438 72.230469 10.390625 72.519531 C 10.382812 72.824219 10.660156 72.8125 10.875 72.828125 C 11.261719 72.855469 11.652344 72.894531 12.039062 72.886719 C 16.824219 72.804688 21.609375 72.738281 26.382812 72.332031 C 27.257812 72.257812 28.160156 72.269531 29.167969 71.886719 C 28.476562 71.632812 27.949219 71.65625 27.414062 71.703125 Z M 113.007812 3.6875 C 109.125 9.195312 105.757812 15.039062 101.925781 20.585938 C 106.324219 15.414062 109.738281 9.59375 113.007812 3.6875 Z M 103.492188 64.300781 C 101.5625 64.523438 99.625 64.65625 97.695312 64.851562 C 97.441406 64.878906 96.980469 64.824219 97.015625 65.210938 C 97.046875 65.539062 97.464844 65.390625 97.703125 65.382812 C 98.941406 65.351562 100.179688 65.339844 101.414062 65.234375 C 104.382812 64.980469 107.367188 64.832031 110.304688 64.125 C 108.039062 64.019531 105.765625 64.039062 103.492188 64.300781 Z M 40.476562 38.851562 C 37.695312 35.503906 34.453125 32.585938 31.644531 29.265625 C 31.566406 29.171875 31.488281 29.0625 31.347656 29.117188 C 31.171875 29.191406 31.207031 29.339844 31.242188 29.488281 C 31.359375 29.957031 31.683594 30.289062 31.984375 30.640625 C 34.691406 33.796875 37.871094 36.492188 40.660156 39.570312 C 40.785156 39.710938 40.949219 39.816406 41.25 40.070312 C 41.039062 39.449219 40.734375 39.164062 40.476562 38.851562 Z M 73.921875 94.035156 C 74.007812 95.945312 74.140625 97.855469 74.171875 99.769531 C 74.226562 102.945312 74.085938 106.128906 74.46875 109.292969 C 74.503906 109.570312 74.328125 110.066406 74.753906 110.058594 C 75.054688 110.054688 74.941406 109.570312 74.929688 109.308594 C 74.714844 105.195312 74.945312 101.058594 74.445312 96.957031 C 74.328125 95.976562 74.175781 95.003906 74.039062 94.023438 C 74 94.027344 73.960938 94.03125 73.921875 94.035156 Z M 42.773438 97.546875 C 45.875 94.476562 48.800781 91.234375 51.988281 88.246094 C 52.304688 87.949219 52.582031 87.605469 52.867188 87.273438 C 52.957031 87.167969 53.070312 87.023438 52.941406 86.886719 C 52.769531 86.710938 52.636719 86.871094 52.519531 86.988281 C 52.277344 87.226562 52.046875 87.476562 51.804688 87.714844 C 48.207031 91.28125 44.683594 94.925781 41.308594 98.71875 C 41.886719 98.4375 42.328125 97.988281 42.773438 97.546875 Z M 103.238281 2.277344 C 100.683594 7.058594 98.179688 11.753906 95.671875 16.453125 C 96.710938 15.917969 103.363281 3.363281 103.238281 2.277344 Z M 137.730469 83.367188 C 133.664062 82.054688 129.515625 81.109375 125.273438 80.527344 C 129.375 81.683594 133.488281 82.808594 137.730469 83.367188 Z M 32.851562 20.441406 C 33.765625 21.417969 34.683594 22.382812 35.605469 23.351562 C 37.128906 24.949219 38.582031 26.617188 40.1875 28.132812 C 40.425781 28.351562 40.640625 28.691406 41.234375 28.582031 C 38.523438 25.175781 35.222656 22.527344 32.285156 19.523438 C 32.324219 19.949219 32.609375 20.183594 32.851562 20.441406 Z M 44.09375 42.449219 C 46.15625 45.0625 48.421875 47.480469 50.976562 49.625 C 48.933594 46.988281 46.699219 44.542969 44.09375 42.449219 Z M 91.976562 138.0625 C 92.003906 137.335938 88.625 128.613281 88.128906 128.136719 C 89.1875 131.535156 90.320312 134.902344 91.976562 138.0625 Z M 61.289062 43.257812 C 59.742188 39.503906 58.242188 35.859375 56.738281 32.214844 C 56.46875 33.167969 60.324219 42.375 61.289062 43.257812 Z M 28.542969 124.988281 C 26.441406 126.707031 23.121094 131.066406 23.160156 132.183594 C 25.25 129.921875 26.957031 127.5 28.527344 124.972656 C 28.527344 124.972656 28.542969 124.988281 28.542969 124.988281 Z M 2.316406 95.199219 C 3.925781 94.515625 5.511719 93.785156 7.101562 93.066406 C 7.257812 92.992188 7.542969 92.941406 7.449219 92.691406 C 7.363281 92.464844 7.117188 92.558594 6.933594 92.59375 C 6.835938 92.609375 6.742188 92.628906 6.648438 92.65625 C 4.566406 93.242188 2.75 94.371094 0.90625 95.441406 C 0.78125 95.511719 0.65625 95.589844 0.535156 95.667969 C 1.257812 95.773438 1.777344 95.425781 2.316406 95.199219 Z M 107.148438 137.1875 C 105.515625 134.625 104.117188 131.910156 102.199219 129.53125 C 102.3125 130.730469 106.175781 136.6875 107.148438 137.1875 Z M 65.859375 94.011719 C 65.921875 93.867188 66.027344 93.648438 65.824219 93.558594 C 65.605469 93.457031 65.539062 93.703125 65.476562 93.839844 C 64.292969 96.332031 63.078125 98.8125 62.289062 101.476562 C 63.8125 99.148438 64.765625 96.546875 65.859375 94.011719 Z M 39.710938 70.707031 C 37.058594 70.796875 34.542969 71.023438 32.050781 71.550781 C 33.480469 71.8125 38.78125 71.234375 39.710938 70.707031 Z M 41.703125 70.753906 C 42.507812 70.683594 43.3125 70.613281 44.117188 70.542969 C 44.109375 70.457031 44.101562 70.371094 44.09375 70.285156 C 43.269531 70.101562 42.464844 70.164062 41.675781 70.503906 C 41.683594 70.585938 41.695312 70.671875 41.703125 70.753906 Z M 41.703125 70.753906 " fill-opacity="1" fill-rule="nonzero"/></g></svg>